<?xml version="1.0" encoding="UTF-8"?>
<svg version="1.1" xmlns="http://www.w3.org/2000/svg" width="500" height="500">
<path d="M0 0 C44.66842741 -1.13167498 93.51638308 6.74760085 127.640625 37.70263672 C128.83203125 39.06201172 128.83203125 39.06201172 128.83203125 41.06201172 C129.49203125 41.06201172 130.15203125 41.06201172 130.83203125 41.06201172 C137.45925118 52.5867055 141.08131707 62.6904307 137.89453125 76.06201172 C132.59911108 91.52563307 118.36562888 101.37210274 104.83203125 109.06201172 C103.92066406 109.58666016 103.00929688 110.11130859 102.0703125 110.65185547 C54.30057297 136.34257131 -10.67562443 135.30188659 -61.53540039 120.55297852 C-83.30178541 113.87795378 -107.49194311 102.63573159 -119.16796875 82.06201172 C-123.63906803 73.50352691 -124.51479733 64.33429966 -122.04296875 54.99951172 C-120.28000615 49.71890074 -117.51838572 45.4713259 -114.16796875 41.06201172 C-113.73871094 40.46775391 -113.30945313 39.87349609 -112.8671875 39.26123047 C-92.34558953 12.92820653 -50.96047962 5.36772525 -20.13427734 1.42138672 C-13.41903445 0.60781984 -6.76274029 0.19343874 0 0 Z M-7.390625 16.80419922 C-14.07946791 24.5581445 -20.16796875 33.50014954 -20.16796875 44.06201172 C-19.14272766 48.5730725 -16.93421103 50.48994382 -13.16796875 53.06201172 C6.89759575 59.75053322 35.11527475 48.22012403 53.09765625 39.60107422 C54.80566172 38.74353923 56.50897921 37.87659108 58.20703125 36.99951172 C58.98578613 36.60030518 59.76454102 36.20109863 60.56689453 35.78979492 C65.48902558 33.13547179 69.05693753 30.19064596 72.83203125 26.06201172 C72.36916605 24.0659129 72.36916605 24.0659129 70.83203125 22.06201172 C68.24489136 20.99760568 65.89137393 20.20784708 63.20703125 19.49951172 C62.45228516 19.2897168 61.69753906 19.07992187 60.91992188 18.86376953 C45.79289276 14.77657474 30.86087667 12.88305639 15.20703125 12.87451172 C14.01851562 12.86226562 12.83 12.85001953 11.60546875 12.83740234 C1.49405104 12.60408455 1.49405104 12.60408455 -7.390625 16.80419922 Z M-52.85546875 20.99951172 C-53.78012939 21.2226001 -54.70479004 21.44568848 -55.6574707 21.67553711 C-75.36205694 26.71671557 -95.93837688 36.45829426 -107.109375 54.11669922 C-109.88622466 59.21954472 -109.89925112 64.41054796 -109.16796875 70.06201172 C-106.36532943 78.29411835 -101.79914106 84.52271919 -95.16796875 90.06201172 C-94.62914062 90.51576172 -94.0903125 90.96951172 -93.53515625 91.43701172 C-90.07237434 94.04769546 -87.43291333 94.46819692 -83.16796875 94.06201172 C-81.20704669 90.15315383 -79.25033227 86.24376871 -77.34375 82.30810547 C-67.75170922 62.61350877 -55.77682924 39.40343683 -39.45703125 24.49951172 C-37.83415757 23.01156598 -37.83415757 23.01156598 -38.16796875 20.06201172 C-43.28632143 18.3840363 -47.7903916 19.76915276 -52.85546875 20.99951172 Z M98.83203125 36.06201172 C97.24876856 38.04648996 97.24876856 38.04648996 95.83203125 41.06201172 C94.99113662 42.61954627 94.14703706 44.1753523 93.30078125 45.72998047 C92.5883728 47.05582153 92.5883728 47.05582153 91.86157227 48.40844727 C83.92138025 63.15705294 75.42998251 77.39131467 66.01953125 91.24951172 C65.49238525 92.02770264 64.96523926 92.80589355 64.42211914 93.60766602 C61.50765096 97.84116445 58.48295293 101.73275591 54.92700195 105.44995117 C53.45744579 107.2886969 53.45744579 107.2886969 53.83203125 111.06201172 C61.40956087 111.64632551 67.64214767 109.56136018 74.76953125 107.12451172 C75.96578125 106.71845703 77.16203125 106.31240234 78.39453125 105.89404297 C95.10933827 100.05197449 112.90296946 92.44151729 121.80859375 76.22607422 C124.77132098 69.96137618 125.00545027 63.50865946 122.7734375 56.95263672 C118.39324226 47.59872385 112.28539175 40.42510118 102.83203125 36.06201172 C101.51203125 36.06201172 100.19203125 36.06201172 98.83203125 36.06201172 Z M-54.16796875 101.06201172 C-54.75707031 101.51962891 -55.34617187 101.97724609 -55.953125 102.44873047 C-57.43135817 104.06570779 -57.43135817 104.06570779 -57.11328125 106.61669922 C-56.39341603 109.14375647 -56.39341603 109.14375647 -54.41015625 110.31982422 C-46.81934515 113.1006164 -39.13643308 114.76099802 -31.16796875 116.06201172 C-29.93949219 116.26955078 -28.71101563 116.47708984 -27.4453125 116.69091797 C-17.97118815 118.04707391 -8.54626582 118.2969768 1.01953125 118.37451172 C2.28555176 118.39215576 3.55157227 118.4097998 4.85595703 118.42797852 C6.6597583 118.42664917 6.6597583 118.42664917 8.5 118.42529297 C10.11297974 118.4297644 10.11297974 118.4297644 11.75854492 118.43432617 C18.2526714 117.64764392 22.14911455 114.28040977 26.15625 109.42919922 C31.13014416 102.40313893 34.11445832 94.73879883 33.83203125 86.06201172 C33.07124555 82.81138192 32.37569948 81.5694354 29.95703125 79.31201172 C9.35913461 67.19560193 -38.77246302 86.47873891 -54.16796875 101.06201172 Z " fill="#2D5CA5" transform="translate(243.16796875,136.93798828125)"/>
<path d="M0 0 C1.77149666 0.0001133 1.77149666 0.0001133 3.57878113 0.00022888 C4.85385025 0.00539017 6.12891937 0.01055145 7.44262695 0.01586914 C9.40060966 0.01799156 9.40060966 0.01799156 11.39814758 0.02015686 C14.86530477 0.02397159 18.33241994 0.03379295 21.79956055 0.04486084 C25.33877992 0.05509741 28.8780063 0.0597141 32.41723633 0.06469727 C39.3593307 0.07488525 46.30130977 0.09445951 53.2434082 0.11352539 C53.2434082 18.26352539 53.2434082 36.41352539 53.2434082 55.11352539 C46.6434082 55.11352539 40.0434082 55.11352539 33.2434082 55.11352539 C33.2434082 50.49352539 33.2434082 45.87352539 33.2434082 41.11352539 C22.3534082 41.11352539 11.4634082 41.11352539 0.2434082 41.11352539 C0.2434082 45.73352539 0.2434082 50.35352539 0.2434082 55.11352539 C-6.3565918 55.11352539 -12.9565918 55.11352539 -19.7565918 55.11352539 C-19.82580643 49.86603094 -19.88543448 44.62014735 -19.92138672 39.37255859 C-19.93638822 37.5909282 -19.95679613 35.8093342 -19.98291016 34.02783203 C-20.01967689 31.45344004 -20.03640464 28.87954009 -20.04956055 26.30493164 C-20.0650444 25.5201796 -20.08052826 24.73542755 -20.09648132 23.92689514 C-20.09843321 17.37926496 -19.04784682 10.92216058 -14.8190918 5.73852539 C-13.7981543 4.93415039 -13.7981543 4.93415039 -12.7565918 4.11352539 C-12.0759668 3.55665039 -11.3953418 2.99977539 -10.6940918 2.42602539 C-7.15078626 0.02572164 -4.15879214 -0.00886736 0 0 Z M0.2434082 17.11352539 C0.2434082 20.74352539 0.2434082 24.37352539 0.2434082 28.11352539 C11.1334082 28.11352539 22.0234082 28.11352539 33.2434082 28.11352539 C33.2434082 23.49352539 33.2434082 18.87352539 33.2434082 14.11352539 C29.18619545 14.04454255 25.13048229 13.98484622 21.07299805 13.94873047 C19.69369603 13.93367117 18.31444167 13.91321926 16.93530273 13.88720703 C14.94967417 13.85070124 12.96369202 13.83537686 10.9777832 13.82055664 C9.78378906 13.80484619 8.58979492 13.78913574 7.35961914 13.77294922 C3.83297658 13.89058606 3.83297658 13.89058606 0.2434082 17.11352539 Z " fill="#2B5BA4" transform="translate(403.756591796875,294.886474609375)"/>
<path d="M0 0 C7.82936805 -0.09198996 15.65684961 -0.17158663 23.48632812 -0.21972656 C26.14810247 -0.23753649 28.80901028 -0.26706285 31.47070312 -0.30175781 C35.3034958 -0.35045548 39.13570363 -0.37301116 42.96875 -0.390625 C44.74421204 -0.42159271 44.74421204 -0.42159271 46.55554199 -0.45318604 C54.19935323 -0.45524695 59.66394747 0.30582273 65.56904602 5.33677673 C69.21561903 9.13568637 69.65177359 12.37471212 69.69921875 17.48828125 C69.70637405 18.19091599 69.71352936 18.89355072 69.72090149 19.61747742 C69.72864821 21.09742983 69.7237304 22.57749735 69.70678711 24.05737305 C69.68762693 26.2976583 69.72689991 28.53166901 69.77148438 30.77148438 C69.81693664 38.16659837 69.4289753 44.17140449 64.87426758 50.32495117 C58.54502593 55.98144811 52.00379294 55.39559458 43.9453125 55.29296875 C42.68862762 55.28872391 41.43194275 55.28447906 40.13717651 55.28010559 C36.81284265 55.26619122 33.4891377 55.23928624 30.16497803 55.20599365 C26.76629133 55.17518247 23.36753747 55.16141185 19.96875 55.14648438 C13.3121482 55.11600543 6.65664077 55.05727511 0 55 C0 36.85 0 18.7 0 0 Z M18 14 C18 23.24 18 32.48 18 42 C22.21780188 42.04592888 26.43473513 42.08574749 30.65258789 42.10986328 C32.08718812 42.119917 33.52176789 42.13356194 34.95629883 42.15087891 C37.01909438 42.17515549 39.08161885 42.18648919 41.14453125 42.1953125 C42.38565674 42.20578613 43.62678223 42.21625977 44.90551758 42.22705078 C48.16903309 42.2428807 48.16903309 42.2428807 51 40 C52.33134925 36.00595224 52.30182913 32.30904364 52.375 28.125 C52.41238281 27.32191406 52.44976562 26.51882813 52.48828125 25.69140625 C52.49988281 24.90894531 52.51148438 24.12648438 52.5234375 23.3203125 C52.5531665 22.25707764 52.5531665 22.25707764 52.58349609 21.17236328 C51.64679898 17.68502815 49.80438417 16.19028199 47 14 C43.7252077 13.31638789 43.7252077 13.31638789 40.16796875 13.51171875 C38.22954102 13.53588867 38.22954102 13.53588867 36.25195312 13.56054688 C34.89711843 13.60231726 33.54230072 13.64464191 32.1875 13.6875 C30.81319134 13.71259931 29.43883884 13.73540964 28.06445312 13.75585938 C24.70916483 13.81472408 21.35444266 13.90440157 18 14 Z " fill="#2E5EA6" transform="translate(312,295)"/>
<path d="M0 0 C7.97317603 -0.06298296 15.94544645 -0.12307906 23.9186554 -0.15525055 C27.63191415 -0.17106515 31.34496608 -0.19218421 35.05810547 -0.22631836 C38.63724175 -0.25901319 42.21617798 -0.27687419 45.79545212 -0.28463173 C47.15815757 -0.29015716 48.52085259 -0.30094704 49.88347244 -0.31719017 C51.79801931 -0.33909636 53.71276925 -0.34022653 55.62744141 -0.34057617 C56.71554108 -0.34723801 57.80364075 -0.35389984 58.92471313 -0.36076355 C62.56344049 0.06609751 64.91081403 1.04148258 68 3 C70.09241179 5.89646364 70.24555848 8.3438894 70.22705078 11.86035156 C70.22689972 12.82104553 70.22674866 13.7817395 70.22659302 14.77154541 C70.21627045 15.80084167 70.20594788 16.83013794 70.1953125 17.890625 C70.1924826 18.95037537 70.18965271 20.01012573 70.18673706 21.10198975 C70.17554734 24.48477497 70.1504447 27.86729487 70.125 31.25 C70.11496865 33.54426701 70.10584307 35.83853817 70.09765625 38.1328125 C70.07561192 43.75531047 70.0410901 49.37761026 70 55 C64.39 55 58.78 55 53 55 C52.97421875 52.44765625 52.9484375 49.8953125 52.921875 47.265625 C52.88344696 44.78992752 52.83828939 42.31443779 52.79248047 39.83886719 C52.76427933 38.12021831 52.74306046 36.40143995 52.72900391 34.68261719 C52.70756167 32.20961253 52.66090844 29.73816325 52.609375 27.265625 C52.60814636 26.49881409 52.60691772 25.73200317 52.60565186 24.94195557 C52.51364388 21.58032827 52.23711079 19.36339806 50.3828125 16.52148438 C47.22105882 14.5026269 45.00589163 14.45624371 41.265625 14.390625 C40.09805664 14.36000977 38.93048828 14.32939453 37.72753906 14.29785156 C36.24995117 14.28206055 34.77236328 14.26626953 33.25 14.25 C28.5475 14.1675 23.845 14.085 19 14 C19 27.53 19 41.06 19 55 C12.73 55 6.46 55 0 55 C0 36.85 0 18.7 0 0 Z " fill="#2C5BA2" transform="translate(237,295)"/>
<path d="M0 0 C5.94 0 11.88 0 18 0 C18 6.27 18 12.54 18 19 C28.23 19 38.46 19 49 19 C49 12.73 49 6.46 49 0 C54.94 0 60.88 0 67 0 C67 18.15 67 36.3 67 55 C61.06 55 55.12 55 49 55 C49 47.41 49 39.82 49 32 C38.77 32 28.54 32 18 32 C18 39.26 18 46.52 18 54 C12.06 54 6.12 54 0 54 C0 36.18 0 18.36 0 0 Z " fill="#2D5DA6" transform="translate(22,295)"/>
<path d="M0 0 C5.61 0 11.22 0 17 0 C17 13.86 17 27.72 17 42 C22.053125 41.896875 27.10625 41.79375 32.3125 41.6875 C33.90360596 41.66260498 35.49471191 41.63770996 37.1340332 41.61206055 C38.38531006 41.57894775 39.63658691 41.54583496 40.92578125 41.51171875 C42.85031128 41.47244263 42.85031128 41.47244263 44.8137207 41.43237305 C47.9330142 41.25097644 47.9330142 41.25097644 49.87963867 39.71801758 C52.56626509 35.5982115 52.2060744 30.94536474 52.31640625 26.171875 C52.33718735 25.42286926 52.35796844 24.67386353 52.37937927 23.90216064 C52.44457088 21.51819712 52.50361783 19.13412688 52.5625 16.75 C52.60571416 15.13019746 52.64932937 13.51040557 52.69335938 11.890625 C52.80097311 7.92719095 52.90027164 3.96367166 53 0 C58.61 0 64.22 0 70 0 C70.09895086 6.601925 70.17150856 13.20341737 70.21972656 19.8059082 C70.2398294 22.05142741 70.26711605 24.29689435 70.30175781 26.54223633 C70.3503331 29.7717784 70.37298237 33.00062775 70.390625 36.23046875 C70.41127014 37.23272995 70.43191528 38.23499115 70.45318604 39.2676239 C70.45457727 43.59892722 70.43671248 46.24981352 68.22558594 50.0480957 C64.15142026 53.62125878 61.26300376 54.2490366 55.85449219 54.22705078 C54.61350769 54.22689972 53.37252319 54.22674866 52.09393311 54.22659302 C50.7449121 54.21638061 49.39589273 54.20594864 48.046875 54.1953125 C46.6625387 54.19158049 45.27819975 54.18873441 43.89385986 54.18673706 C40.2573309 54.17911534 36.62096269 54.15947955 32.98449707 54.1373291 C29.27093723 54.1168391 25.55735055 54.10761891 21.84375 54.09765625 C14.5623582 54.07729442 7.28140738 54.03814474 0 54 C0 36.18 0 18.36 0 0 Z " fill="#2B5BA4" transform="translate(163,295)"/>
<path d="M0 0 C5.94 0 11.88 0 18 0 C18 0.66 18 1.32 18 2 C18.99 2.33 19.98 2.66 21 3 C22.359375 4.56640625 22.359375 4.56640625 23.75 6.5625 C26.90956033 10.95254236 30.38644849 14.98019122 34 19 C37.7048511 17.50982656 39.4745915 15.46002359 41.875 12.3125 C42.5865625 11.42433594 43.298125 10.53617187 44.03125 9.62109375 C45.98964731 7.14178237 45.98964731 7.14178237 47.21875 4.78515625 C48.57575109 2.54335377 49.82203044 1.45444427 52 0 C54.1015625 -0.3918457 54.1015625 -0.3918457 56.375 -0.42578125 C57.1892041 -0.44044434 58.0034082 -0.45510742 58.84228516 -0.47021484 C62.57326076 -0.42202218 66.27661155 -0.24588414 70 0 C66.74278836 4.40163735 63.43177714 8.75523641 60.04760742 13.05981445 C59.08941584 14.28242547 58.1378617 15.51026421 57.19262695 16.74291992 C55.08738609 19.46766708 53.05734967 21.94584657 50.546875 24.31640625 C43.74423434 30.95999236 44.09671464 38.30127016 43.94677734 47.32983398 C43.93884549 49.88660524 43.96585569 52.44344444 44 55 C38.06 55 32.12 55 26 55 C25.98582031 53.33710938 25.97164062 51.67421875 25.95703125 49.9609375 C25.91012228 47.76559754 25.86187494 45.57028589 25.8125 43.375 C25.80669922 42.28058594 25.80089844 41.18617188 25.79492188 40.05859375 C25.73855238 33.29145911 25.73855238 33.29145911 22.69921875 27.4765625 C21.80847656 26.65929687 20.91773437 25.84203125 20 25 C19.32582031 24.32453125 18.65164062 23.6490625 17.95703125 22.953125 C17.31121094 22.30859375 16.66539063 21.6640625 16 21 C14.54329403 19.26595445 13.10685931 17.51474514 11.6875 15.75 C8.30987852 11.57270986 4.84492 7.51792862 1.21484375 3.55859375 C0 2 0 2 0 0 Z " fill="#2E5DA4" transform="translate(91,295)"/>
<path d="M0 0 C5.94 0 11.88 0 18 0 C18 18.48 18 36.96 18 56 C12.06 56 6.12 56 0 56 C0 37.52 0 19.04 0 0 Z " fill="#3260A6" transform="translate(460,295)"/>
<path d="M0 0 C1.77149666 0.0001133 1.77149666 0.0001133 3.57878113 0.00022888 C4.85385025 0.00539017 6.12891937 0.01055145 7.44262695 0.01586914 C9.40060966 0.01799156 9.40060966 0.01799156 11.39814758 0.02015686 C14.86530477 0.02397159 18.33241994 0.03379295 21.79956055 0.04486084 C25.33877992 0.05509741 28.8780063 0.0597141 32.41723633 0.06469727 C39.3593307 0.07488525 46.30130977 0.09445951 53.2434082 0.11352539 C53.2434082 18.26352539 53.2434082 36.41352539 53.2434082 55.11352539 C46.6434082 55.11352539 40.0434082 55.11352539 33.2434082 55.11352539 C33.2434082 50.49352539 33.2434082 45.87352539 33.2434082 41.11352539 C22.3534082 41.11352539 11.4634082 41.11352539 0.2434082 41.11352539 C0.2434082 40.78352539 0.2434082 40.45352539 0.2434082 40.11352539 C11.4634082 40.11352539 22.6834082 40.11352539 34.2434082 40.11352539 C34.7384082 46.54852539 34.7384082 46.54852539 35.2434082 53.11352539 C40.5234082 53.11352539 45.8034082 53.11352539 51.2434082 53.11352539 C50.9134082 36.61352539 50.5834082 20.11352539 50.2434082 3.11352539 C42.75028746 3.09059507 35.257288 3.07067398 27.76416016 3.05859375 C25.21402576 3.05355877 22.66389425 3.04673043 20.11376953 3.03808594 C16.45254808 3.0259839 12.79136473 3.02028878 9.13012695 3.01586914 C7.98630051 3.01070786 6.84247406 3.00554657 5.66398621 3.00022888 C4.60311295 3.00015335 3.54223969 3.00007782 2.44921875 3 C1.04690254 2.99666908 1.04690254 2.99666908 -0.38374329 2.99327087 C-2.90730075 3.01498094 -2.90730075 3.01498094 -5.7565918 4.11352539 C-6.7465918 4.34040039 -7.7365918 4.56727539 -8.7565918 4.80102539 C-12.62978852 6.49554896 -13.07602977 8.35226751 -14.7565918 12.11352539 C-15.7465918 12.44352539 -16.7365918 12.77352539 -17.7565918 13.11352539 C-17.7565918 26.64352539 -17.7565918 40.17352539 -17.7565918 54.11352539 C-11.8165918 54.11352539 -5.8765918 54.11352539 0.2434082 54.11352539 C0.2434082 54.44352539 0.2434082 54.77352539 0.2434082 55.11352539 C-6.3565918 55.11352539 -12.9565918 55.11352539 -19.7565918 55.11352539 C-19.82580643 49.86603094 -19.88543448 44.62014735 -19.92138672 39.37255859 C-19.93638822 37.5909282 -19.95679613 35.8093342 -19.98291016 34.02783203 C-20.01967689 31.45344004 -20.03640464 28.87954009 -20.04956055 26.30493164 C-20.0650444 25.5201796 -20.08052826 24.73542755 -20.09648132 23.92689514 C-20.09843321 17.37926496 -19.04784682 10.92216058 -14.8190918 5.73852539 C-13.7981543 4.93415039 -13.7981543 4.93415039 -12.7565918 4.11352539 C-12.0759668 3.55665039 -11.3953418 2.99977539 -10.6940918 2.42602539 C-7.15078626 0.02572164 -4.15879214 -0.00886736 0 0 Z " fill="#5B7DAC" transform="translate(403.756591796875,294.886474609375)"/>
<path d="M0 0 C5.61 0 11.22 0 17 0 C17 13.86 17 27.72 17 42 C28.22 41.67 39.44 41.34 51 41 C50 43 50 43 48.30419922 43.60083008 C43.2985558 44.467987 38.19225615 44.47982557 33.125 44.6875 C31.36736328 44.77741211 31.36736328 44.77741211 29.57421875 44.86914062 C28.43855469 44.91619141 27.30289063 44.96324219 26.1328125 45.01171875 C25.10043457 45.05772217 24.06805664 45.10372559 23.00439453 45.15112305 C19.69750435 44.98478427 17.08139303 44.17672529 14 43 C14 42.34 14 41.68 14 41 C14.66 41 15.32 41 16 41 C16 28.46 16 15.92 16 3 C12.04 3 8.08 3 4 3 C2.78995168 3.98966726 2.78995168 3.98966726 2.87974548 5.90455627 C2.88196609 6.73728561 2.88418671 7.57001495 2.88647461 8.42797852 C2.88659546 9.38208618 2.88671631 10.33619385 2.88684082 11.31921387 C2.89195679 12.32891235 2.89707275 13.33861084 2.90234375 14.37890625 C2.90335083 15.30183472 2.90435791 16.22476318 2.90539551 17.17565918 C2.91064506 20.63795201 2.92460619 24.1002272 2.9375 27.5625 C2.958125 35.296875 2.97875 43.03125 3 51 C23.46 51 43.92 51 65 51 C62 54 62 54 59.28547668 54.36076355 C57.64333443 54.3507708 57.64333443 54.3507708 55.96801758 54.34057617 C54.10642754 54.34023628 54.10642754 54.34023628 52.20722961 54.33988953 C50.85299316 54.32456968 49.49876039 54.3089217 48.14453125 54.29296875 C46.7587683 54.28737251 45.37299941 54.28310254 43.98722839 54.28010559 C40.34237236 54.26865883 36.69787577 54.23919358 33.05316162 54.20599365 C29.33301748 54.17528886 25.61281345 54.16143501 21.89257812 54.14648438 C14.59473478 54.11591536 7.29787807 54.05719672 0 54 C0 36.18 0 18.36 0 0 Z " fill="#345991" transform="translate(163,295)"/>
<path d="M0 0 C5.94 0 11.88 0 18 0 C18 18.15 18 36.3 18 55 C12.06 55 6.12 55 0 55 C0 54.67 0 54.34 0 54 C7.92 53.505 7.92 53.505 16 53 C16 36.17 16 19.34 16 2 C8.86550411 1.63195919 8.86550411 1.63195919 3 4 C2.602507 6.34723966 2.25631277 8.70328548 1.9375 11.0625 C1.76089844 12.35285156 1.58429688 13.64320313 1.40234375 14.97265625 C1.26957031 15.97167969 1.13679688 16.97070312 1 18 C0.67 18 0.34 18 0 18 C0 12.06 0 6.12 0 0 Z " fill="#3C5F96" transform="translate(71,295)"/>
<path d="M0 0 C6.30367803 0.58367389 11.98660063 2.04071619 18 4 C16.68 4.33 15.36 4.66 14 5 C14.7763932 8.0745356 14.7763932 8.0745356 17 10 C16.34 10 15.68 10 15 10 C15.02320313 10.75925781 15.04640625 11.51851562 15.0703125 12.30078125 C15.09738281 13.79158203 15.09738281 13.79158203 15.125 15.3125 C15.14820313 16.29863281 15.17140625 17.28476563 15.1953125 18.30078125 C15 21 15 21 13 24 C10.5 25.5 10.5 25.5 8 27 C7.34 27.99 6.68 28.98 6 30 C5.01 29.67 4.02 29.34 3 29 C3.66 29 4.32 29 5 29 C5 28.01 5 27.02 5 26 C6.53125 24.39453125 6.53125 24.39453125 8.5 22.8125 C9.47453125 22.01779297 9.47453125 22.01779297 10.46875 21.20703125 C10.9740625 20.80871094 11.479375 20.41039062 12 20 C11.67 19.01 11.34 18.02 11 17 C8.29876276 15.95880649 5.71185565 15.09671155 2.9375 14.3125 C2.17888672 14.08755859 1.42027344 13.86261719 0.63867188 13.63085938 C-1.23766304 13.0762195 -3.11844855 12.53667702 -5 12 C-3.68 11.67 -2.36 11.34 -1 11 C-1 10.34 -1 9.68 -1 9 C-0.01 8.67 0.98 8.34 2 8 C2.33 8.99 2.66 9.98 3 11 C7.88514762 10.34521869 7.88514762 10.34521869 12 8 C12.36162029 6.67405895 12.69728039 5.34061543 13 4 C9.37114676 3.84850702 9.37114676 3.84850702 6 5 C6 4.01 6 3.02 6 2 C3.03 1.505 3.03 1.505 0 1 C0 0.67 0 0.34 0 0 Z " fill="#365F9E" transform="translate(303,143)"/>
<path d="M0 0 C5.94 0 11.88 0 18 0 C18 6.27 18 12.54 18 19 C17.67 19 17.34 19 17 19 C17 13.06 17 7.12 17 1 C11.72 1 6.44 1 1 1 C1.33 17.5 1.66 34 2 51 C6.29 51.66 10.58 52.32 15 53 C15.33 46.07 15.66 39.14 16 32 C16.33 32 16.66 32 17 32 C17 39.26 17 46.52 17 54 C11.39 54 5.78 54 0 54 C0 36.18 0 18.36 0 0 Z " fill="#365990" transform="translate(22,295)"/>
<path d="M0 0 C0.66 0 1.32 0 2 0 C2 0.66 2 1.32 2 2 C3.32 2.33 4.64 2.66 6 3 C5.67 10.59 5.34 18.18 5 26 C9.62 26 14.24 26 19 26 C19 19.07 19 12.14 19 5 C19.66 5 20.32 5 21 5 C21 12.59 21 20.18 21 28 C15.06 28 9.12 28 3 28 C2.95101562 26.31390625 2.90203125 24.6278125 2.8515625 22.890625 C2.77652663 20.67706684 2.70097915 18.46352598 2.625 16.25 C2.5940625 15.13882812 2.563125 14.02765625 2.53125 12.8828125 C2.49257812 11.81289063 2.45390625 10.74296875 2.4140625 9.640625 C2.3826416 8.65610352 2.3512207 7.67158203 2.31884766 6.65722656 C1.99897742 3.99147799 1.35631379 2.29383595 0 0 Z " fill="#4A6EA1" transform="translate(114,322)"/>
<path d="M0 0 C17.82 0 35.64 0 54 0 C54 0.66 54 1.32 54 2 C36.84 2.33 19.68 2.66 2 3 C1.67 4.65 1.34 6.3 1 8 C0.67 8 0.34 8 0 8 C0 5.36 0 2.72 0 0 Z " fill="#345993" transform="translate(313,295)"/>
<path d="M0 0 C0.33 0 0.66 0 1 0 C1 8.91 1 17.82 1 27 C5.19974926 26.9029255 9.39854303 26.80011531 13.59765625 26.68261719 C15.02530398 26.64439976 16.45304563 26.60953428 17.88085938 26.578125 C19.93653868 26.53231599 21.99157554 26.4743502 24.046875 26.4140625 C25.28276367 26.3826416 26.51865234 26.3512207 27.79199219 26.31884766 C30.76678017 26.02317999 32.49349184 25.55972669 35 24 C33.125 27.875 33.125 27.875 32 29 C27.74735537 29.35551597 23.48156317 29.46924054 19.21704102 29.61254883 C17.07445588 29.68708408 14.93293845 29.77772761 12.79101562 29.86914062 C11.43493098 29.91765913 10.07881155 29.96521709 8.72265625 30.01171875 C7.48265869 30.05772217 6.24266113 30.10372559 4.96508789 30.15112305 C2 30 2 30 0 28 C-0.22705078 25.20263672 -0.22705078 25.20263672 -0.1953125 21.6796875 C-0.18886719 20.42285156 -0.18242187 19.16601562 -0.17578125 17.87109375 C-0.15902344 16.55238281 -0.14226562 15.23367188 -0.125 13.875 C-0.11496983 12.53516279 -0.10584404 11.19531848 -0.09765625 9.85546875 C-0.07402075 6.57013427 -0.04107234 3.28515535 0 0 Z " fill="#305996" transform="translate(329,310)"/>
<path d="M0 0 C1.15371094 0.0515625 2.30742187 0.103125 3.49609375 0.15625 C4.68589844 0.22070312 5.87570313 0.28515625 7.1015625 0.3515625 C8.92107422 0.43664062 8.92107422 0.43664062 10.77734375 0.5234375 C13.76105687 0.66440032 16.74386346 0.81576496 19.7265625 0.9765625 C19.7265625 1.3065625 19.7265625 1.6365625 19.7265625 1.9765625 C17.51367188 2.17773438 17.51367188 2.17773438 15.30078125 2.37890625 C13.88635742 2.50749023 13.88635742 2.50749023 12.44335938 2.63867188 C8.52783203 2.99462891 4.61230469 3.35058594 0.69677734 3.70654297 C-0.28339355 3.79564941 -1.26356445 3.88475586 -2.2734375 3.9765625 C-4.35026042 4.16536458 -6.42708333 4.35416667 -8.50390625 4.54296875 C-10.09375 4.6875 -11.68359375 4.83203125 -13.2734375 4.9765625 C-12.9434375 3.9865625 -12.6134375 2.9965625 -12.2734375 1.9765625 C-8.06134323 0.10118317 -4.56500918 -0.22599055 0 0 Z " fill="#365E9E" transform="translate(247.2734375,212.0234375)"/>
<path d="M0 0 C5.94 0 11.88 0 18 0 C18 0.66 18 1.32 18 2 C18.99 2.33 19.98 2.66 21 3 C20.01 3.99 19.02 4.98 18 6 C16.68 5.34 15.36 4.68 14 4 C14.33 3.34 14.66 2.68 15 2 C10.545 2.495 10.545 2.495 6 3 C5.67 4.32 5.34 5.64 5 7 C3.29115995 5.37660195 1.62553283 3.70680947 0 2 C0 1.34 0 0.68 0 0 Z " fill="#406196" transform="translate(91,295)"/>
<path d="M0 0 C0.33 0 0.66 0 1 0 C1.04938149 4.37823917 1.0857104 8.75633146 1.10986328 13.13476562 C1.11993043 14.6247032 1.13358518 16.11462097 1.15087891 17.60449219 C1.17509653 19.74419028 1.18647564 21.88362753 1.1953125 24.0234375 C1.20578613 25.31169434 1.21625977 26.59995117 1.22705078 27.92724609 C1 31 1 31 -1 33 C-2.12773872 29.44081303 -2.04621252 26.23357359 -1.9140625 22.51953125 C-1.87023437 21.27365234 -1.82640625 20.02777344 -1.78125 18.74414062 C-1.7296875 17.44669922 -1.678125 16.14925781 -1.625 14.8125 C-1.58117187 13.50345703 -1.53734375 12.19441406 -1.4921875 10.84570312 C-1.12913999 1.12913999 -1.12913999 1.12913999 0 0 Z " fill="#355C91" transform="translate(380,307)"/>
<path d="M0 0 C0 0.66 0 1.32 0 2 C1.98 2 3.96 2 6 2 C3.72967403 4.27032597 2.43879894 4.61795635 -0.61328125 5.47265625 C-1.53173828 5.73240234 -2.45019531 5.99214844 -3.39648438 6.25976562 C-4.83991211 6.65711914 -4.83991211 6.65711914 -6.3125 7.0625 C-7.26318359 7.33126953 -8.21386719 7.60003906 -9.19335938 7.87695312 C-11.79143722 8.6049959 -14.38659822 9.32897394 -17 10 C-17.8871167 10.23388428 -18.7742334 10.46776855 -19.68823242 10.70874023 C-20.45111572 10.80485596 -21.21399902 10.90097168 -22 11 C-22.66 10.34 -23.32 9.68 -24 9 C-22.90300781 8.73445313 -21.80601562 8.46890625 -20.67578125 8.1953125 C-19.22130753 7.83873185 -17.76688302 7.4819504 -16.3125 7.125 C-15.59126953 6.95097656 -14.87003906 6.77695312 -14.12695312 6.59765625 C-10.27971155 5.64902134 -6.64284431 4.59509159 -3 3 C-3.33 2.34 -3.66 1.68 -4 1 C-2 0 -2 0 0 0 Z " fill="#3E659E" transform="translate(324,251)"/>
<path d="M0 0 C4.67867917 2.42931419 8.15855795 4.38265667 11 9 C10.67 9.99 10.34 10.98 10 12 C9.01 11.67 8.02 11.34 7 11 C5.8125 8.4375 5.8125 8.4375 5 6 C4.01 6.33 3.02 6.66 2 7 C0.4375 5.75 0.4375 5.75 -1 4 C-0.6875 1.8125 -0.6875 1.8125 0 0 Z " fill="#456A9F" transform="translate(370,296)"/>
<path d="M0 0 C0.33 0.99 0.66 1.98 1 3 C3.31309705 2.88658363 5.62550185 2.75896193 7.9375 2.625 C9.22527344 2.55539062 10.51304687 2.48578125 11.83984375 2.4140625 C12.88269531 2.27742188 13.92554688 2.14078125 15 2 C15.33 1.34 15.66 0.68 16 0 C16.33 1.65 16.66 3.3 17 5 C11.39 5 5.78 5 0 5 C0 3.35 0 1.7 0 0 Z " fill="#6985B6" transform="translate(290,345)"/>
<path d="M0 0 C0.66 0.33 1.32 0.66 2 1 C2 1.99 2 2.98 2 4 C3.32 4.33 4.64 4.66 6 5 C4.35 6.98 2.7 8.96 1 11 C0.01 10.67 -0.98 10.34 -2 10 C-1.85950482 8.52031676 -1.71245174 7.04125484 -1.5625 5.5625 C-1.48128906 4.73878906 -1.40007812 3.91507813 -1.31640625 3.06640625 C-1 1 -1 1 0 0 Z " fill="#3E67A8" transform="translate(365,223)"/>
<path d="M0 0 C0 0.99 0 1.98 0 3 C-2 5 -2 5 -4.88916016 5.13525391 C-6.69586182 5.05670166 -6.69586182 5.05670166 -8.5390625 4.9765625 C-9.84101563 4.925 -11.14296875 4.8734375 -12.484375 4.8203125 C-13.86459379 4.75543042 -15.24480202 4.69032333 -16.625 4.625 C-18.01298149 4.56676301 -19.4010025 4.50945967 -20.7890625 4.453125 C-24.19320926 4.31128555 -27.59665846 4.15983765 -31 4 C-31 3.67 -31 3.34 -31 3 C-29.75126099 2.970271 -29.75126099 2.970271 -28.47729492 2.93994141 C-25.385235 2.86179258 -22.29356617 2.77509794 -19.2019043 2.68261719 C-17.2070464 2.62555908 -15.2119146 2.57835558 -13.21679688 2.53125 C-11.33637695 2.47324219 -11.33637695 2.47324219 -9.41796875 2.4140625 C-8.26063232 2.3826416 -7.1032959 2.3512207 -5.91088867 2.31884766 C-2.80872972 2.20528967 -2.80872972 2.20528967 0 0 Z " fill="#395A8D" transform="translate(363,334)"/>
<path d="M0 0 C3.47478479 3.01148016 4.97043629 5.50735835 6 10 C5.625 12.375 5.625 12.375 5 14 C3.68 13.67 2.36 13.34 1 13 C1.01160156 12.39671875 1.02320313 11.7934375 1.03515625 11.171875 C1.04417969 10.37265625 1.05320312 9.5734375 1.0625 8.75 C1.07410156 7.96109375 1.08570313 7.1721875 1.09765625 6.359375 C1.00385306 4.09308998 0.63241063 2.1711105 0 0 Z " fill="#3E64A2" transform="translate(375,182)"/>
<path d="M0 0 C3.5218253 1.95656961 6.34442785 3.95100975 9 7 C9 7.66 9 8.32 9 9 C9.66 9 10.32 9 11 9 C11 9.99 11 10.98 11 12 C10.01 12.33 9.02 12.66 8 13 C7 12 7 12 6.9375 9.4375 C6.958125 8.633125 6.97875 7.82875 7 7 C6.34 7 5.68 7 5 7 C5 6.34 5 5.68 5 5 C3.68 5 2.36 5 1 5 C0.67 3.35 0.34 1.7 0 0 Z " fill="#5577AA" transform="translate(363,169)"/>
<path d="M0 0 C1.23556641 0.01740234 1.23556641 0.01740234 2.49609375 0.03515625 C3.32238281 0.04417969 4.14867188 0.05320312 5 0.0625 C5.63808594 0.07410156 6.27617188 0.08570313 6.93359375 0.09765625 C6.93359375 1.74765625 6.93359375 3.39765625 6.93359375 5.09765625 C6.19109375 4.91203125 5.44859375 4.72640625 4.68359375 4.53515625 C1.98368412 4.10562517 0.48728298 4.24642651 -2.06640625 5.09765625 C-2.62890625 3.16015625 -2.62890625 3.16015625 -3.06640625 1.09765625 C-2.06640625 0.09765625 -2.06640625 0.09765625 0 0 Z " fill="#285BA6" transform="translate(99.06640625,296.90234375)"/>
<path d="M0 0 C0 1.65 0 3.3 0 5 C0.66 5.33 1.32 5.66 2 6 C1 7 1 7 -2.0625 7.0625 C-3.031875 7.041875 -4.00125 7.02125 -5 7 C-5 3 -5 3 -3.625 1.25 C-2 0 -2 0 0 0 Z " fill="#4971AC" transform="translate(137,171)"/>
<path d="M0 0 C0.7425 0.2475 1.485 0.495 2.25 0.75 C1.92 1.41 1.59 2.07 1.25 2.75 C0.074375 2.8428125 0.074375 2.8428125 -1.125 2.9375 C-1.99125 3.205625 -2.8575 3.47375 -3.75 3.75 C-5.61983745 7.22307328 -5.61983745 7.22307328 -6.75 10.75 C-7.41 10.42 -8.07 10.09 -8.75 9.75 C-5.94354839 -0.54032258 -5.94354839 -0.54032258 0 0 Z " fill="#51709D" transform="translate(344.75,171.25)"/>
<path d="M0 0 C2.4375 1.1875 2.4375 1.1875 5 3 C5.8125 5.6875 5.8125 5.6875 6 8 C5.34 8 4.68 8 4 8 C4 7.01 4 6.02 4 5 C2.02 5 0.04 5 -2 5 C-2 2 -2 2 0 0 Z " fill="#3B639F" transform="translate(201,152)"/>
<path d="M0 0 C10.55808656 0.96355353 10.55808656 0.96355353 15 2 C15 2.33 15 2.66 15 3 C9.06 3.495 9.06 3.495 3 4 C3 3.34 3 2.68 3 2 C2.01 1.67 1.02 1.34 0 1 C0 0.67 0 0.34 0 0 Z " fill="#315A96" transform="translate(196,250)"/>
<path d="M0 0 C0.99 0.33 1.98 0.66 3 1 C3 1.66 3 2.32 3 3 C3.99 3.33 4.98 3.66 6 4 C5.30058404 7.14737182 4.23921302 10.02588876 3 13 C1.56554886 10.13109771 1.56926882 7.26195706 1.28125 4.09375 C1.107845 1.94556067 1.107845 1.94556067 0 0 Z " fill="#486C9E" transform="translate(274,217)"/>
<path d="M0 0 C-1.93270582 1.93270582 -5.38641388 1.62663055 -8 2 C-8.33 2.33 -8.66 2.66 -9 3 C-10.66617115 3.04063832 -12.33388095 3.042721 -14 3 C-14 2.34 -14 1.68 -14 1 C-12.41913952 0.63495397 -10.83516093 0.28339494 -9.25 -0.0625 C-8.36828125 -0.25972656 -7.4865625 -0.45695313 -6.578125 -0.66015625 C-4.01320972 -0.99825872 -2.42908361 -0.81158635 0 0 Z " fill="#426696" transform="translate(209,142)"/>
<path d="M0 0 C1.98 0.99 3.96 1.98 6 3 C5.01 3.495 5.01 3.495 4 4 C3.67 4.99 3.34 5.98 3 7 C0 5 0 5 -1 3 C-0.67 2.01 -0.34 1.02 0 0 Z " fill="#4267AD" transform="translate(370,296)"/>
<path d="M0 0 C0.33 0.66 0.66 1.32 1 2 C1.66 2.33 2.32 2.66 3 3 C1.02 5.97 1.02 5.97 -1 9 C-1.99 8.67 -2.98 8.34 -4 8 C-2.66666667 5.33333333 -1.33333333 2.66666667 0 0 Z " fill="#4169AA" transform="translate(138,300)"/>
<path d="M0 0 C0.66 0.33 1.32 0.66 2 1 C1.67 1.99 1.34 2.98 1 4 C0.34 4 -0.32 4 -1 4 C-1 4.66 -1 5.32 -1 6 C-2.32 5.67 -3.64 5.34 -5 5 C-3.35 3.35 -1.7 1.7 0 0 Z " fill="#295AA7" transform="translate(152,300)"/>
<path d="M0 0 C0.66 0.99 1.32 1.98 2 3 C0.8125 6.625 0.8125 6.625 -1 10 C-1.99 10.33 -2.98 10.66 -4 11 C-2.7874262 7.27566618 -1.49140021 3.62197194 0 0 Z " fill="#5A7CA9" transform="translate(275,233)"/>
<path d="M0 0 C-0.99 1.485 -0.99 1.485 -2 3 C-5.625 3.6875 -5.625 3.6875 -9 4 C-9 3.34 -9 2.68 -9 2 C-5.86501708 0.14223235 -3.62528568 -0.20140476 0 0 Z " fill="#355B99" transform="translate(298,177)"/>
<path d="M0 0 C0.66 0.66 1.32 1.32 2 2 C-0.8125 4.0625 -0.8125 4.0625 -4 6 C-4.99 5.67 -5.98 5.34 -7 5 C-5.68 3.68 -4.36 2.36 -3 1 C-2.01 1.33 -1.02 1.66 0 2 C0 1.34 0 0.68 0 0 Z " fill="#345998" transform="translate(357,237)"/>
<path d="M0 0 C1.32 0 2.64 0 4 0 C4 0.66 4 1.32 4 2 C4.99 2 5.98 2 7 2 C7.66 3.32 8.32 4.64 9 6 C5.06326356 4.68775452 2.77280706 3.08089673 0 0 Z " fill="#3A5F96" transform="translate(142,237)"/>
<path d="M0 0 C4.28359673 1.8855148 6.15103592 4.35965701 9 8 C8.01 8 7.02 8 6 8 C4.39453125 6.25 4.39453125 6.25 2.8125 4 C2.28269531 3.2575 1.75289062 2.515 1.20703125 1.75 C0.80871094 1.1725 0.41039063 0.595 0 0 Z " fill="#5F7EAE" transform="translate(127,223)"/>
<path d="M0 0 C1.32 0.33 2.64 0.66 4 1 C2.63016497 4.16115776 2.0109362 4.9927092 -1 7 C-1.33 5.35 -1.66 3.7 -2 2 C-1.01 2.33 -0.02 2.66 1 3 C0.67 2.01 0.34 1.02 0 0 Z " fill="#2F5999" transform="translate(235,149)"/>
<path d="M0 0 C0.66 0.33 1.32 0.66 2 1 C1.01 2.98 0.02 4.96 -1 7 C-2.32 6.34 -3.64 5.68 -5 5 C-5 4.34 -5 3.68 -5 3 C-2.625 1.3125 -2.625 1.3125 0 0 Z " fill="#4C72A9" transform="translate(290,305)"/>
<path d="M0 0 C-1.98 2.97 -1.98 2.97 -4 6 C-4.103125 5.360625 -4.20625 4.72125 -4.3125 4.0625 C-4.539375 3.381875 -4.76625 2.70125 -5 2 C-5.99 1.67 -6.98 1.34 -8 1 C-5.07175348 0.02391783 -3.04386724 -0.08226668 0 0 Z " fill="#456799" transform="translate(161,295)"/>
<path d="M0 0 C0.33 0.66 0.66 1.32 1 2 C0.34 2 -0.32 2 -1 2 C-1.33 2.99 -1.66 3.98 -2 5 C-3.32 5 -4.64 5 -6 5 C-6 4.01 -6 3.02 -6 2 C-4.02 1.34 -2.04 0.68 0 0 Z " fill="#486DAA" transform="translate(324,241)"/>
<path d="M0 0 C4.2742558 1.5830577 6.26531794 4.50568404 9 8 C5.56247993 6.4722133 2.81046312 4.49818944 0 2 C0 1.34 0 0.68 0 0 Z " fill="#345790" transform="translate(138,218)"/>
<path d="M0 0 C0.33 0.66 0.66 1.32 1 2 C1.99 2.33 2.98 2.66 4 3 C3.01 3.99 2.02 4.98 1 6 C-0.32 5.34 -1.64 4.68 -3 4 C-2.01 3.67 -1.02 3.34 0 3 C0 2.01 0 1.02 0 0 Z " fill="#5575B4" transform="translate(108,295)"/>
<path d="M0 0 C0 0.99 0 1.98 0 3 C-3.3 2.67 -6.6 2.34 -10 2 C-10 1.67 -10 1.34 -10 1 C-3.375 0 -3.375 0 0 0 Z " fill="#3C6195" transform="translate(215,261)"/>
<path d="M0 0 C0.99 0.99 1.98 1.98 3 3 C1.02 4.32 -0.96 5.64 -3 7 C-2.67 5.35 -2.34 3.7 -2 2 C-1.34 2 -0.68 2 0 2 C0 1.34 0 0.68 0 0 Z " fill="#446BA5" transform="translate(196,228)"/>
<path d="M0 0 C1.32 0.33 2.64 0.66 4 1 C1.525 4.465 1.525 4.465 -1 8 C-1.33 6.68 -1.66 5.36 -2 4 C-1.34 4 -0.68 4 0 4 C0 2.68 0 1.36 0 0 Z " fill="#496BA1" transform="translate(373,220)"/>
<path d="M0 0 C0.33 0.66 0.66 1.32 1 2 C0.06553465 4.03144641 -0.93224776 6.03533587 -2 8 C-2.99 7.34 -3.98 6.68 -5 6 C-3.35 4.02 -1.7 2.04 0 0 Z " fill="#355994" transform="translate(198,167)"/>
<path d="M0 0 C0.33 0.99 0.66 1.98 1 3 C0.67 3.66 0.34 4.32 0 5 C0.66 5.33 1.32 5.66 2 6 C1.01 6.33 0.02 6.66 -1 7 C-1 6.34 -1 5.68 -1 5 C-1.66 5 -2.32 5 -3 5 C-2.625 3.0625 -2.625 3.0625 -2 1 C-1.34 0.67 -0.68 0.34 0 0 Z " fill="#3D65A2" transform="translate(143,165)"/>
<path d="M0 0 C1.98 0.99 1.98 0.99 4 2 C3.67 3.65 3.34 5.3 3 7 C2.01 6.67 1.02 6.34 0 6 C0 4 0 2 0 0 Z " fill="#3A66A4" transform="translate(193,248)"/>
<path d="M0 0 C0.99 0.33 1.98 0.66 3 1 C2.34 1 1.68 1 1 1 C0.67 2.98 0.34 4.96 0 7 C-0.66 7 -1.32 7 -2 7 C-2 5.02 -2 3.04 -2 1 C-1.34 0.67 -0.68 0.34 0 0 Z " fill="#5275A6" transform="translate(297,241)"/>
<path d="M0 0 C0.66 0 1.32 0 2 0 C2 0.66 2 1.32 2 2 C2.66 2 3.32 2 4 2 C4 2.99 4 3.98 4 5 C3.01 5.33 2.02 5.66 1 6 C0 5 0 5 -0.0625 2.4375 C-0.041875 1.633125 -0.02125 0.82875 0 0 Z " fill="#4B6BA3" transform="translate(370,176)"/>
</svg>
