<?xml version="1.0" encoding="UTF-8"?>
<svg version="1.1" xmlns="http://www.w3.org/2000/svg" width="500" height="500">
<path d="M0 0 C1.16208984 1.09828125 1.16208984 1.09828125 2.34765625 2.21875 C4.47906746 4.28323626 4.47906746 4.28323626 7.4375 6.5 C23.09353111 20.49049589 32.90854642 40.00382363 34.59375 60.828125 C35.38374371 83.34294587 23.79909086 102.44693554 9.03710938 118.40380859 C-0.01597579 127.77869849 -10.54022341 135.34869746 -21.625 142.125 C-22.28387207 142.52928223 -22.94274414 142.93356445 -23.62158203 143.35009766 C-44.42763122 155.9234299 -67.33323906 164.43300646 -90.625 171.125 C-91.5639209 171.39650879 -92.5028418 171.66801758 -93.47021484 171.94775391 C-146.11676278 186.85675532 -204.41045058 190.55767909 -258.625 184.125 C-259.75212402 183.99609375 -260.87924805 183.8671875 -262.04052734 183.734375 C-316.17121806 177.38421658 -375.339558 162.41637161 -417.625 126.125 C-418.5840625 125.32835937 -419.543125 124.53171875 -420.53125 123.7109375 C-436.4506884 109.98265776 -449.77613616 90.57182051 -451.625 69.125 C-453.02659973 46.32336537 -443.49993572 27.2086568 -428.75 10.375 C-423.77825644 5.08051575 -418.39241041 0.52580258 -412.625 -3.875 C-411.76261719 -4.54144531 -410.90023437 -5.20789063 -410.01171875 -5.89453125 C-368.01681281 -37.43737171 -314.51774347 -50.9618241 -263.1875 -57.1875 C-262.51920166 -57.26890228 -261.85090332 -57.35030457 -261.16235352 -57.43417358 C-179.00678328 -67.28170968 -80.42939691 -57.49265227 0 0 Z M-415.625 26.125 C-416.26050781 26.69734375 -416.89601563 27.2696875 -417.55078125 27.859375 C-424.96214407 34.76130933 -430.11916018 43.32215463 -432.625 53.125 C-432.851875 53.929375 -433.07875 54.73375 -433.3125 55.5625 C-434.76845322 67.50131638 -432.23267376 79.0003386 -425.625 89.125 C-422.18812431 93.36756949 -418.49388933 97.27677229 -414.625 101.125 C-413.73296875 102.01703125 -412.8409375 102.9090625 -411.921875 103.828125 C-405.41394894 110.03158668 -398.44558705 114.74021799 -390.625 119.125 C-390.00947266 119.47916992 -389.39394531 119.83333984 -388.75976562 120.19824219 C-346.82639806 144.21770905 -295.45105315 153.96602033 -247.625 157.125 C-245.70892944 157.25418823 -245.70892944 157.25418823 -243.75415039 157.38598633 C-232.10491291 158.12685951 -220.48331454 158.32655824 -208.8125 158.3125 C-207.87612701 158.31189575 -206.93975403 158.3112915 -205.9750061 158.31066895 C-137.28988275 158.19114685 -52.06532588 148.68004075 0.0625 98.8125 C7.39992105 91.30902699 12.76265756 83.34448361 15.375 73.125 C15.601875 72.320625 15.82875 71.51625 16.0625 70.6875 C17.62033548 57.9132491 14.50575849 46.81340373 7.375 36.125 C4.54906268 32.60930748 1.51813238 29.35714144 -1.625 26.125 C-2.17800781 25.51011719 -2.73101562 24.89523438 -3.30078125 24.26171875 C-38.32347199 -13.54193006 -105.0038275 -23.7291295 -153.25 -29.125 C-153.9867395 -29.20808411 -154.723479 -29.29116821 -155.48254395 -29.37677002 C-172.93151068 -31.31841772 -190.32239235 -32.08741665 -207.875 -32.0625 C-208.74105865 -32.06156342 -209.60711731 -32.06062683 -210.49942017 -32.05966187 C-278.33907412 -31.90224328 -364.30012902 -22.92885899 -415.625 26.125 Z " fill="#C9242B" transform="translate(458.625,186.875)"/>
<path d="M0 0 C0.72397476 0.00404846 1.44794952 0.00809692 2.19386292 0.01226807 C2.93858353 0.01035461 3.68330414 0.00844116 4.45059204 0.00646973 C6.02672157 0.00510793 7.60286232 0.00880404 9.17897034 0.01715088 C11.5910925 0.02783581 14.00246735 0.01726361 16.41456604 0.00445557 C17.94516664 0.00577746 19.47576678 0.00834047 21.00636292 0.01226807 C21.72831345 0.0082196 22.45026398 0.00417114 23.1940918 0 C26.90169586 0.0346782 28.49868264 0.16600205 31.66651917 2.27789307 C32.00418959 5.17945631 32.1556026 7.87786197 32.17823792 10.78570557 C32.19618912 11.62632538 32.21414032 12.46694519 32.2326355 13.33303833 C32.28689947 16.02293858 32.32068502 18.71265982 32.35401917 21.40289307 C32.38717812 23.22453265 32.42166644 25.04614856 32.45753479 26.86773682 C32.54263488 31.33766002 32.60936872 35.80752866 32.66651917 40.27789307 C39.43221845 31.90716719 46.10037629 23.49355365 52.47999573 14.82281494 C60.88187312 3.4676571 60.88187312 3.4676571 65.66651917 0.27789307 C68.82106018 0.03497314 68.82106018 0.03497314 72.67042542 0.04742432 C73.34951462 0.04788254 74.02860382 0.04834076 74.72827148 0.04881287 C76.16139985 0.05182976 77.5945251 0.05969928 79.02760315 0.07208252 C81.22441686 0.09035479 83.42080922 0.09259201 85.61769104 0.09234619 C96.3713322 0.13029958 96.3713322 0.13029958 98.66651917 1.27789307 C98.10245756 5.41929276 96.78897903 7.98375973 94.41651917 11.40289307 C93.69464417 12.45476807 92.97276917 13.50664307 92.22901917 14.59039307 C91.82296448 15.17433838 91.41690979 15.75828369 90.99855042 16.35992432 C89.00580972 19.22923717 87.03540801 22.11373919 85.0627594 24.99688721 C83.96168862 26.60611938 82.85963108 28.21467682 81.75660706 29.8225708 C75.97880254 38.25374871 70.31483278 46.75962551 64.66651917 55.27789307 C70.0988482 64.13411962 76.04768872 72.58063324 82.07276917 81.03863525 C85.17764841 85.4010667 88.26972195 89.77263898 91.34767151 94.15411377 C93.68995908 97.48826854 96.04663837 100.807898 98.45558167 104.09429932 C98.88330872 104.6869458 99.31103577 105.27959229 99.75172424 105.89019775 C100.89902844 107.47958038 102.05774942 109.06070428 103.21730042 110.64117432 C104.66651917 113.27789307 104.66651917 113.27789307 104.25709534 115.44268799 C104.0622052 116.04830566 103.86731506 116.65392334 103.66651917 117.27789307 C99.07677454 117.40201247 94.4880183 117.49247183 89.89698792 117.55255127 C88.33724438 117.57760934 86.77761727 117.61166608 85.21827698 117.65509033 C82.96896073 117.71613499 80.72120356 117.74418733 78.47120667 117.76617432 C77.78033966 117.79198074 77.08947266 117.81778717 76.37767029 117.84437561 C70.69649889 117.84762526 68.52757714 116.1213319 64.66651917 112.27789307 C63.15016174 110.63140869 63.15016174 110.63140869 62.06105042 109.18414307 C61.64065491 108.63548584 61.2202594 108.08682861 60.78712463 107.52154541 C60.35544983 106.94614014 59.92377502 106.37073486 59.47901917 105.77789307 C55.78456781 100.95843482 52.00443337 96.2541759 48.04151917 91.65289307 C43.57762474 86.46172601 39.45774525 81.08891789 35.44386292 75.54351807 C33.86575713 73.19930574 33.86575713 73.19930574 31.66651917 72.27789307 C31.68222961 74.2160791 31.68222961 74.2160791 31.69825745 76.19342041 C31.73438635 80.97545616 31.75739368 85.75747979 31.77638245 90.53961182 C31.78645628 92.61157254 31.80011582 94.68351899 31.81739807 96.75543213 C31.84158581 99.72910071 31.85298825 102.70258177 31.86183167 105.67633057 C31.87215424 106.60658051 31.88247681 107.53683044 31.89311218 108.49526978 C31.89333878 109.78638168 31.89333878 109.78638168 31.89356995 111.10357666 C31.89801117 111.86302582 31.90245239 112.62247498 31.9070282 113.40493774 C31.66651917 115.27789307 31.66651917 115.27789307 29.66651917 117.27789307 C26.71730042 117.53668213 26.71730042 117.53668213 22.97901917 117.54351807 C22.32071106 117.54543152 21.66240295 117.54734497 20.98414612 117.54931641 C19.59213377 117.55067757 18.2001087 117.5469859 16.80812073 117.53863525 C14.67469328 117.52793407 12.54210786 117.53853213 10.40870667 117.55133057 C9.0571423 117.55000896 7.70557846 117.54744654 6.35401917 117.54351807 C5.12038635 117.54126221 3.88675354 117.53900635 2.61573792 117.53668213 C-0.33348083 117.27789307 -0.33348083 117.27789307 -2.33348083 115.27789307 C-2.58402061 113.41876411 -2.58402061 113.41876411 -2.58503723 111.11605835 C-2.59042007 110.24401764 -2.59580292 109.37197693 -2.60134888 108.47351074 C-2.59722488 107.51450867 -2.59310089 106.55550659 -2.58885193 105.56744385 C-2.59247238 104.55920563 -2.59609283 103.55096741 -2.599823 102.51217651 C-2.60672933 100.31756624 -2.60922013 98.12293875 -2.60787582 95.92831802 C-2.60691391 92.4572301 -2.61981304 88.98645469 -2.63685608 85.51541138 C-2.68323168 75.64475946 -2.70774103 65.77413838 -2.71434021 55.90338135 C-2.71934666 49.87092718 -2.74355443 43.83879796 -2.7796669 37.8064537 C-2.78948674 35.50434187 -2.79178502 33.20218545 -2.78649521 30.90005875 C-2.77944839 27.68206161 -2.79665892 24.46503657 -2.81932068 21.24713135 C-2.81114822 20.29217773 -2.80297577 19.33722412 -2.79455566 18.35333252 C-2.76620473 13.15980267 -2.76620473 13.15980267 -5.34217834 8.81887817 C-5.99930817 8.31035309 -6.65643799 7.801828 -7.33348083 7.27789307 C-7.70848083 4.65289307 -7.70848083 4.65289307 -7.33348083 2.27789307 C-4.84974146 -0.20584631 -3.39064912 0.03186265 0 0 Z " fill="#CA232A" transform="translate(102.33348083496094,191.72210693359375)"/>
<path d="M0 0 C0.78291412 -0.00841919 1.56582825 -0.01683838 2.37246704 -0.0255127 C3.26033905 -0.04142456 4.14821106 -0.05733643 5.06298828 -0.07373047 C6.02443756 -0.07393188 6.98588684 -0.0741333 7.97647095 -0.07434082 C9.4562291 -0.08576111 9.4562291 -0.08576111 10.96588135 -0.09741211 C13.05564846 -0.10823147 15.14546972 -0.1110588 17.23526001 -0.10656738 C20.43377055 -0.10559667 23.62987063 -0.14716416 26.82803345 -0.19152832 C28.85667427 -0.19673628 30.88532344 -0.1994235 32.91397095 -0.19934082 C33.87137177 -0.21573608 34.82877258 -0.23213135 35.81518555 -0.24902344 C42.37071356 -0.18080206 42.37071356 -0.18080206 45.51455688 2.37585449 C47.52153821 6.25066978 48.93886991 10.13136292 50.25772095 14.28503418 C50.54708527 15.16581131 50.83644958 16.04658844 51.13458252 16.95405579 C51.75796098 18.85528446 52.37656379 20.75808429 52.99087524 22.66226196 C54.29680926 26.70992011 55.62566715 30.74993248 56.95321655 34.7905426 C57.63901359 36.87864425 58.32361233 38.96713981 59.00704956 41.05601501 C62.44415264 51.55275201 65.99872993 62.00796765 69.57803345 72.45690918 C70.13393465 74.08416242 70.68976343 75.7114404 71.24551392 77.33874512 C71.51387054 78.12278717 71.78222717 78.90682922 72.05871582 79.71463013 C72.58717571 81.25923663 73.11432298 82.80429293 73.64007568 84.349823 C75.06616675 88.52306304 76.54168892 92.67251313 78.0741272 96.8079834 C78.56761658 98.15925575 78.56761658 98.15925575 79.07107544 99.53782654 C79.7050246 101.26947815 80.35002303 102.9971388 81.00784302 104.71986389 C82.69152369 109.35060938 83.47494073 112.48000626 82.07803345 117.39440918 C78.02138398 117.49350058 73.96520575 117.56598024 69.90762329 117.61413574 C68.52826664 117.6342156 67.14899476 117.66148583 65.76992798 117.69616699 C63.78446366 117.74483735 61.7983709 117.76527336 59.81240845 117.78503418 C58.02141724 117.81645508 58.02141724 117.81645508 56.19424438 117.84851074 C53.07803345 117.39440918 53.07803345 117.39440918 50.88711548 116.02258301 C48.10918331 111.98689612 46.85454964 107.60312091 45.39834595 102.95300293 C45.06309906 101.91611832 44.72785217 100.8792337 44.38244629 99.81092834 C43.31115695 96.48815126 42.25692823 93.16023915 41.20303345 89.83190918 C40.50231938 87.64991215 39.80050706 85.46826749 39.0975647 83.2869873 C37.07402465 76.99482594 35.07225111 70.69591772 33.07803345 64.39440918 C32.76813477 63.41562805 32.45823608 62.43684692 32.13894653 61.42840576 C30.44789155 56.08502305 28.76092433 50.74036854 27.07803345 45.39440918 C26.08803345 45.39440918 25.09803345 45.39440918 24.07803345 45.39440918 C23.79877014 46.2521846 23.51950684 47.10996002 23.23178101 47.99372864 C20.59765328 56.07644126 17.95055599 64.15476298 15.28879929 72.22842121 C13.92081652 76.37933837 12.55790691 80.53177998 11.20645142 84.68811035 C9.90204677 88.69910865 8.58450102 92.70556634 7.25772858 96.70921898 C6.75385276 98.23747634 6.25473284 99.76731022 5.7604599 101.29870033 C5.0673192 103.4434509 4.35747915 105.58197277 3.64346313 107.71984863 C3.04389801 109.54852226 3.04389801 109.54852226 2.43222046 111.41413879 C1.00860678 114.54720215 0.06969565 115.76617736 -2.92196655 117.39440918 C-5.94638062 117.73498535 -5.94638062 117.73498535 -9.43759155 117.68737793 C-10.68798218 117.67770996 -11.9383728 117.66804199 -13.22665405 117.65808105 C-15.17958374 117.62037598 -15.17958374 117.62037598 -17.17196655 117.58190918 C-18.48938843 117.56837402 -19.8068103 117.55483887 -21.16415405 117.54089355 C-24.41716977 117.50553469 -27.66936256 117.45617951 -30.92196655 117.39440918 C-32.70012075 114.16709615 -32.98248638 112.68880712 -32.22924805 109.02468872 C-31.79957896 107.71854929 -31.35157727 106.41835356 -30.88925171 105.12341309 C-30.64880127 104.40860275 -30.40835083 103.69379242 -30.16061401 102.95732117 C-29.3597283 100.589552 -28.53557152 98.23059634 -27.71102905 95.87097168 C-27.14298512 94.20734388 -26.5763898 92.54322082 -26.01116943 90.87863159 C-24.51307328 86.47978026 -22.99510292 82.08803831 -21.47299194 77.69744873 C-19.95820175 73.31671781 -18.46243311 68.92951192 -16.9649353 64.54284668 C-12.77980909 52.30018051 -8.56483481 40.06792643 -4.28427124 27.85827637 C-3.90330292 26.7704184 -3.52233459 25.68256042 -3.12982178 24.56173706 C-2.44728604 22.6168002 -1.76182204 20.67288724 -1.07275391 18.73025513 C-0.78242279 17.90447968 -0.49209167 17.07870422 -0.19296265 16.22790527 C0.17969223 15.17655899 0.17969223 15.17655899 0.55987549 14.10397339 C1.17472107 12.37313403 1.17472107 12.37313403 1.07803345 10.39440918 C0.43865845 9.94065918 -0.20071655 9.48690918 -0.85946655 9.01940918 C-2.92196655 7.39440918 -2.92196655 7.39440918 -3.79696655 5.39440918 C-3.98447541 2.39426745 -3.02218724 0.62018685 0 0 Z " fill="#C9242B" transform="translate(331.9219665527344,191.6055908203125)"/>
<path d="M0 0 C0.76928833 -0.0033284 1.53857666 -0.0066568 2.33117676 -0.01008606 C3.95857138 -0.01515129 5.5859764 -0.01749451 7.21337891 -0.01733398 C9.70883175 -0.01952255 12.20384405 -0.03768779 14.69921875 -0.05664062 C16.27864432 -0.05957416 17.85807199 -0.06155922 19.4375 -0.0625 C20.1864856 -0.06968552 20.93547119 -0.07687103 21.70715332 -0.08427429 C26.9899224 -0.06085885 26.9899224 -0.06085885 29.21875 2.16796875 C29.46763897 4.19165134 29.46763897 4.19165134 29.46598816 6.72962952 C29.47018265 7.69014725 29.47437714 8.65066498 29.47869873 9.64028931 C29.47307922 10.6975119 29.46745972 11.7547345 29.46166992 12.84399414 C29.46356827 13.95458694 29.46546661 15.06517975 29.46742249 16.20942688 C29.47113915 19.89489716 29.46041397 23.58017212 29.44921875 27.265625 C29.44802743 29.81627886 29.44757369 32.36693316 29.4478302 34.91758728 C29.44626383 40.26841172 29.43820356 45.61916786 29.42456055 50.9699707 C29.4088266 57.16388501 29.4035627 63.35773728 29.4042961 69.55167013 C29.40490559 75.50186098 29.39970018 81.45203387 29.39150429 87.40221977 C29.38831099 89.93848994 29.38634868 92.47476195 29.38561058 95.01103401 C29.38345448 98.54783415 29.37472638 102.08455471 29.36401367 105.62133789 C29.36446686 106.68058472 29.36492004 107.73983154 29.36538696 108.83117676 C29.36112198 109.78887466 29.35685699 110.74657257 29.35246277 111.73329163 C29.35078692 112.5704474 29.34911108 113.40760317 29.34738445 114.2701273 C29.21875 116.16796875 29.21875 116.16796875 28.21875 117.16796875 C25.86646681 117.28114159 23.54463052 117.33213412 21.19140625 117.3359375 C20.13523354 117.3409301 20.13523354 117.3409301 19.057724 117.34602356 C17.56558894 117.3510953 16.0734425 117.35343181 14.58129883 117.35327148 C12.29424393 117.35545634 10.00767247 117.37360424 7.72070312 117.39257812 C6.27343916 117.39551229 4.82617289 117.39749693 3.37890625 117.3984375 C2.69240494 117.40562302 2.00590363 117.41280853 1.29859924 117.42021179 C-3.55242631 117.39679244 -3.55242631 117.39679244 -5.78125 115.16796875 C-6.03178978 113.29322243 -6.03178978 113.29322243 -6.0328064 110.96817017 C-6.03818924 110.0877153 -6.04357208 109.20726044 -6.04911804 108.30012512 C-6.04499405 107.33177231 -6.04087006 106.36341949 -6.03662109 105.36572266 C-6.04024155 104.34773087 -6.043862 103.32973907 -6.04759216 102.28089905 C-6.05449863 100.06500776 -6.05698927 97.84909942 -6.05564499 95.63319778 C-6.0546831 92.12850605 -6.06758186 88.62412387 -6.08462524 85.11947632 C-6.13100178 75.15324311 -6.15551032 65.18704044 -6.16210938 55.22070312 C-6.16711569 49.12989564 -6.19132278 43.03941001 -6.22743607 36.9487114 C-6.23725622 34.62427068 -6.23955402 32.2997858 -6.23426437 29.97533035 C-6.22721794 26.72620355 -6.24442733 23.47803966 -6.26708984 20.22900391 C-6.25483116 18.78254738 -6.25483116 18.78254738 -6.24232483 17.30686951 C-6.20426669 12.06779904 -6.20426669 12.06779904 -8.82119751 7.7071228 C-9.46801483 7.19920197 -10.11483215 6.69128113 -10.78125 6.16796875 C-10.65625 3.48046875 -10.65625 3.48046875 -9.78125 1.16796875 C-6.68181455 -0.38174898 -3.40181402 0.00505433 0 0 Z " fill="#CB2229" transform="translate(239.78125,191.83203125)"/>
<path d="M0 0 C4.94790177 -0.0493651 9.89566083 -0.08570269 14.84375 -0.10986328 C16.52769466 -0.11993317 18.21162179 -0.13358988 19.89550781 -0.15087891 C22.31319501 -0.17508426 24.73065143 -0.18647296 27.1484375 -0.1953125 C27.9036972 -0.20563507 28.65895691 -0.21595764 29.43710327 -0.22659302 C31.2929398 -0.22699318 33.1481928 -0.12222716 35 0 C37 2 37 2 37.24888897 4.02368259 C37.2483442 4.86121539 37.24779943 5.69874819 37.24723816 6.56166077 C37.25143265 7.5221785 37.25562714 8.48269623 37.25994873 9.47232056 C37.25432922 10.52954315 37.24870972 11.58676575 37.24291992 12.67602539 C37.24481827 13.78661819 37.24671661 14.897211 37.24867249 16.04145813 C37.25238915 19.72692841 37.24166397 23.41220337 37.23046875 27.09765625 C37.22927743 29.64831011 37.22882369 32.19896441 37.2290802 34.74961853 C37.22751383 40.10044297 37.21945356 45.45119911 37.20581055 50.80200195 C37.1900766 56.99591626 37.1848127 63.18976853 37.1855461 69.38370138 C37.18615559 75.33389223 37.18095018 81.28406512 37.17275429 87.23425102 C37.16956099 89.77052119 37.16759868 92.3067932 37.16686058 94.84306526 C37.16470448 98.3798654 37.15597638 101.91658596 37.14526367 105.45336914 C37.14571686 106.51261597 37.14617004 107.57186279 37.14663696 108.66320801 C37.14237198 109.62090591 37.13810699 110.57860382 37.13371277 111.56532288 C37.13203692 112.40247865 37.13036108 113.23963442 37.12863445 114.10215855 C37 116 37 116 36 117 C33.6243148 117.0883967 31.27791326 117.11530305 28.90234375 117.09765625 C27.83905602 117.09553383 27.83905602 117.09553383 26.75428772 117.09336853 C24.48198288 117.08775443 22.20977525 117.07519963 19.9375 117.0625 C18.40039204 117.05748681 16.86328255 117.05292359 15.32617188 117.04882812 C11.55074358 117.03778042 7.77538829 117.02050641 4 117 C3.67 116.34 3.34 115.68 3 115 C13.56 115 24.12 115 35 115 C35 78.37 35 41.74 35 4 C34.01 3.67 33.02 3.34 32 3 C32.33 2.34 32.66 1.68 33 1 C22.11 1 11.22 1 0 1 C0 0.67 0 0.34 0 0 Z " fill="#AE3136" transform="translate(232,192)"/>
<path d="M0 0 C0.99 0 1.98 0 3 0 C3 1.66666667 3 3.33333333 3 5 C4.32 5 5.64 5 7 5 C7 5.99 7 6.98 7 8 C7.66 8.33 8.32 8.66 9 9 C8.34 9 7.68 9 7 9 C6.67 42.99 6.34 76.98 6 112 C16.23 112 26.46 112 37 112 C37.33 97.48 37.66 82.96 38 68 C39.98 68 41.96 68 44 68 C43.67 69.65 43.34 71.3 43 73 C41.68 72.01 40.36 71.02 39 70 C39.01571045 71.93818604 39.01571045 71.93818604 39.03173828 73.91552734 C39.06786719 78.69756309 39.09087451 83.47958673 39.10986328 88.26171875 C39.11993712 90.33367947 39.13359666 92.40562593 39.15087891 94.47753906 C39.17506664 97.45120764 39.18646908 100.4246887 39.1953125 103.3984375 C39.20563507 104.32868744 39.21595764 105.25893738 39.22659302 106.21737671 C39.22681961 107.50848862 39.22681961 107.50848862 39.22705078 108.82568359 C39.231492 109.58513275 39.23593323 110.34458191 39.24050903 111.12704468 C39 113 39 113 37 115 C34.05078125 115.25878906 34.05078125 115.25878906 30.3125 115.265625 C29.65419189 115.26753845 28.99588379 115.2694519 28.31762695 115.27142334 C26.9256146 115.2727845 25.53358953 115.26909283 24.14160156 115.26074219 C22.00817411 115.250041 19.87558869 115.26063906 17.7421875 115.2734375 C16.39062314 115.27211589 15.0390593 115.26955347 13.6875 115.265625 C12.45386719 115.26336914 11.22023438 115.26111328 9.94921875 115.25878906 C7 115 7 115 5 113 C4.74946022 111.14087105 4.74946022 111.14087105 4.7484436 108.83816528 C4.74306076 107.96612457 4.73767792 107.09408386 4.73213196 106.19561768 C4.73625595 105.2366156 4.74037994 104.27761353 4.74462891 103.28955078 C4.74100845 102.28131256 4.737388 101.27307434 4.73365784 100.23428345 C4.7267515 98.03967318 4.7242607 95.84504568 4.72560501 93.65042496 C4.72656693 90.17933703 4.71366779 86.70856163 4.69662476 83.23751831 C4.65024915 73.36686639 4.6257398 63.49624531 4.61914062 53.62548828 C4.61413417 47.59303411 4.5899264 41.56090489 4.55381393 35.52856064 C4.54399409 33.2264488 4.54169582 30.92429238 4.54698563 28.62216568 C4.55403245 25.40416854 4.53682191 22.1871435 4.51416016 18.96923828 C4.52233261 18.01428467 4.53050507 17.05933105 4.53892517 16.07543945 C4.57017008 10.8813319 4.57017008 10.8813319 1.98348999 6.54879761 C1.00166245 5.78214279 1.00166245 5.78214279 0 5 C-0.25 2.25 -0.25 2.25 0 0 Z " fill="#AD3034" transform="translate(95,194)"/>
<path d="M0 0 C7.425 0.99 7.425 0.99 15 2 C15 2.33 15 2.66 15 3 C14.10732422 3.11480713 13.21464844 3.22961426 12.29492188 3.34790039 C-13.48913095 6.71568728 -39.55130554 10.45900674 -64.32275391 18.66601562 C-68.7096076 20.09679747 -68.7096076 20.09679747 -72 19 C-72 18.67 -72 18.34 -72 18 C-70.35 18 -68.7 18 -67 18 C-67 17.34 -67 16.68 -67 16 C-65.50146484 15.69255859 -65.50146484 15.69255859 -63.97265625 15.37890625 C-62.68230469 15.10949219 -61.39195313 14.84007812 -60.0625 14.5625 C-58.77472656 14.29566406 -57.48695312 14.02882812 -56.16015625 13.75390625 C-53.15361121 13.32818384 -53.15361121 13.32818384 -52 12 C-49.2307936 11.46329713 -46.45054915 11.0351126 -43.6640625 10.59765625 C-40.7922703 10.12087222 -40.7922703 10.12087222 -38 8 C-35.76342773 7.51342773 -35.76342773 7.51342773 -33.18359375 7.18359375 C-32.25482422 7.05919922 -31.32605469 6.93480469 -30.36914062 6.80664062 C-29.40169922 6.68482422 -28.43425781 6.56300781 -27.4375 6.4375 C-25.51913117 6.18927046 -23.60113843 5.93811149 -21.68359375 5.68359375 C-20.83337646 5.57587646 -19.98315918 5.46815918 -19.10717773 5.35717773 C-16.95116343 5.09701763 -16.95116343 5.09701763 -15 4 C-12.62597499 3.92883618 -10.24999323 3.91590915 -7.875 3.9375 C-6.59367187 3.94652344 -5.31234375 3.95554688 -3.9921875 3.96484375 C-2.51105469 3.98224609 -2.51105469 3.98224609 -1 4 C-0.67 2.68 -0.34 1.36 0 0 Z " fill="#B6363E" transform="translate(183,155)"/>
<path d="M0 0 C0.66 0 1.32 0 2 0 C2.309375 1.134375 2.61875 2.26875 2.9375 3.4375 C3.62924531 6.78775099 3.62924531 6.78775099 5 8 C5.09535213 9.36608326 5.1218867 10.73705455 5.12025452 12.10646057 C5.12162918 12.99132141 5.12300385 13.87618225 5.12442017 14.78785706 C5.12082489 15.76608932 5.11722961 16.74432159 5.11352539 17.75219727 C5.11367142 18.7764682 5.11381744 19.80073914 5.1139679 20.85604858 C5.11326828 24.25952229 5.10547363 27.66294204 5.09765625 31.06640625 C5.09579224 33.41910268 5.09436826 35.7717995 5.09336853 38.12449646 C5.08954199 44.33056705 5.07971055 50.5366144 5.06866455 56.74267578 C5.05845334 63.06998378 5.05387154 69.39729552 5.04882812 75.72460938 C5.0380884 88.14974982 5.02101036 100.57487298 5 113 C4.67 113 4.34 113 4 113 C3.99453156 111.05894379 3.99453156 111.05894379 3.98895264 109.07867432 C3.95204165 96.89480069 3.89431158 84.71118072 3.81609726 72.52750015 C3.77655637 66.26343982 3.74440025 59.99952146 3.72900391 53.73535156 C3.71388102 47.69219243 3.67951293 41.64942345 3.63169098 35.60643768 C3.61683209 33.29875831 3.60895642 30.99102326 3.60811615 28.6832962 C3.60575835 25.45543113 3.57877347 22.22865472 3.54589844 19.00097656 C3.5509288 18.04288086 3.55595917 17.08478516 3.56114197 16.09765625 C3.57977463 10.87924076 3.57977463 10.87924076 0.95025635 6.54681396 C0.30667175 6.03636536 -0.33691284 5.52591675 -1 5 C-0.75 2.25 -0.75 2.25 0 0 Z " fill="#AF2F34" transform="translate(230,193)"/>
<path d="M0 0 C3.12498063 -0.02895976 6.2499269 -0.04678483 9.375 -0.0625 C10.70917969 -0.07506836 10.70917969 -0.07506836 12.0703125 -0.08789062 C13.34648437 -0.09272461 13.34648437 -0.09272461 14.6484375 -0.09765625 C15.43395996 -0.10289307 16.21948242 -0.10812988 17.02880859 -0.11352539 C19 0 19 0 21 1 C33.272925 2.23114299 45.67767047 2.28983285 58 2.5625 C59.85417333 2.60583546 61.70834008 2.64945365 63.5625 2.69335938 C68.04159772 2.79882056 72.52076613 2.90049702 77 3 C77 3.33 77 3.66 77 4 C22.69862379 4.47523757 22.69862379 4.47523757 0 1 C0 0.67 0 0.34 0 0 Z " fill="#AD3A3E" transform="translate(193,369)"/>
<path d="M0 0 C2.475 0.495 2.475 0.495 5 1 C1.91273627 3.05817582 0.03664436 3.57047185 -3.55078125 4.2890625 C-4.64197266 4.50820313 -5.73316406 4.72734375 -6.85742188 4.953125 C-7.99759766 5.17484375 -9.13777344 5.3965625 -10.3125 5.625 C-11.44107422 5.85445313 -12.56964844 6.08390625 -13.73242188 6.3203125 C-18.92271479 7.34676242 -23.69094041 8.1292126 -29 8 C-29.33 6.68 -29.66 5.36 -30 4 C-28.68 3.34 -27.36 2.68 -26 2 C-25.67 3.32 -25.34 4.64 -25 6 C-24.34 6 -23.68 6 -23 6 C-23.33 4.68 -23.66 3.36 -24 2 C-22.35 2 -20.7 2 -19 2 C-19 2.66 -19 3.32 -19 4 C-15.7 4 -12.4 4 -9 4 C-9 3.34 -9 2.68 -9 2 C-6.03 2 -3.06 2 0 2 C0 1.34 0 0.68 0 0 Z " fill="#C22930" transform="translate(351,359)"/>
<path d="M0 0 C0.90070724 0.02009628 1.80141449 0.04019257 2.72941589 0.06089783 C3.69825211 0.08793289 4.66708832 0.11496796 5.6652832 0.14282227 C7.15714897 0.17823875 7.15714897 0.17823875 8.67915344 0.21437073 C11.85826951 0.29099229 15.03714108 0.37502339 18.21606445 0.45922852 C20.37034933 0.51245069 22.52464617 0.56519108 24.67895508 0.61743164 C29.96230975 0.7466054 35.24548256 0.88186439 40.52856445 1.02172852 C40.52856445 1.35172852 40.52856445 1.68172852 40.52856445 2.02172852 C39.39241699 2.04678467 38.25626953 2.07184082 37.08569336 2.09765625 C15.55932126 2.57569585 -5.95971991 3.07223326 -27.47143555 4.02172852 C-27.47143555 3.69172852 -27.47143555 3.36172852 -27.47143555 3.02172852 C-26.58621216 2.93870483 -26.58621216 2.93870483 -25.68310547 2.85400391 C-23.00802347 2.60105165 -20.33348952 2.34270152 -17.65893555 2.08422852 C-16.73016602 1.9972168 -15.80139648 1.91020508 -14.84448242 1.82055664 C-13.50546875 1.69003906 -13.50546875 1.69003906 -12.1394043 1.55688477 C-11.31722412 1.47833252 -10.49504395 1.39978027 -9.64794922 1.31884766 C-6.22435925 0.85148826 -3.51153835 -0.08852618 0 0 Z " fill="#A13638" transform="translate(231.471435546875,152.978271484375)"/>
<path d="M0 0 C0 0.66 0 1.32 0 2 C6.14299466 2.96360701 12.0267194 3.02010675 18.2421875 2.83984375 C21 3 21 3 23 5 C25.43252661 5.46162427 25.43252661 5.46162427 28.125 5.625 C29.49011719 5.73714844 29.49011719 5.73714844 30.8828125 5.8515625 C31.58148438 5.90054687 32.28015625 5.94953125 33 6 C33 6.66 33 7.32 33 8 C25.38910095 8.36333438 18.21863603 6.99553321 10.75 5.625 C9.48414063 5.40328125 8.21828125 5.1815625 6.9140625 4.953125 C-3.3069142 3.10857507 -3.3069142 3.10857507 -7 1 C-2.25 0 -2.25 0 0 0 Z " fill="#B6373E" transform="translate(159,361)"/>
<path d="M0 0 C0.66 0.99 1.32 1.98 2 3 C1.50488281 4.93115234 1.50488281 4.93115234 0.453125 7.2109375 C-1.44176092 11.59146789 -3.08060075 16.00949144 -4.578125 20.5390625 C-4.79641968 21.19622253 -5.01471436 21.85338257 -5.23962402 22.53045654 C-5.91227145 24.56114723 -6.58121512 26.59303438 -7.25 28.625 C-7.71325883 30.02483322 -8.17679857 31.4245735 -8.640625 32.82421875 C-9.76365159 36.21508246 -10.88289133 39.60718137 -12 43 C-12.66 43 -13.32 43 -14 43 C-12.9997612 38.45868592 -11.32536828 34.11140485 -9.72851562 29.75195312 C-8.55246572 26.36780951 -8.00229587 23.74822009 -8.03515625 20.14453125 C-8.02355469 19.10683594 -8.01195312 18.06914062 -8 17 C-7.01 16.34 -6.02 15.68 -5 15 C-3.98296827 12.45025847 -3.11112741 9.99044446 -2.3125 7.375 C-1.97508789 6.31539062 -1.97508789 6.31539062 -1.63085938 5.234375 C-1.07772099 3.49257755 -0.53759637 1.74665697 0 0 Z " fill="#B93F46" transform="translate(355,233)"/>
<path d="M0 0 C1.65 0.33 3.3 0.66 5 1 C5.25328119 6.06562383 4.33583899 10.15758367 3 15 C2.34 15 1.68 15 1 15 C1 16.32 1 17.64 1 19 C2.32 19 3.64 19 5 19 C4.1875 21.4375 4.1875 21.4375 3 24 C2.01 24.33 1.02 24.66 0 25 C-0.66 24.67 -1.32 24.34 -2 24 C-2.33 25.32 -2.66 26.64 -3 28 C-2.61280427 21.67580313 -0.81574169 16.0473232 1.2722168 10.10522461 C2.55883428 6.636722 2.55883428 6.636722 3 3 C1.54166642 1.37485532 1.54166642 1.37485532 0 0 Z " fill="#B82F36" transform="translate(330,199)"/>
<path d="M0 0 C1.74565111 3.21639654 2.204437 5.32013404 2 9 C1.34 9 0.68 9 0 9 C0 9.66 0 10.32 0 11 C-0.66 11 -1.32 11 -2 11 C-2.144375 12.134375 -2.28875 13.26875 -2.4375 14.4375 C-3 18 -3 18 -4 19 C-3.95875 20.27875 -3.9175 21.5575 -3.875 22.875 C-3.81962177 26.73763166 -3.81962177 26.73763166 -5.375 29 C-7 30 -7 30 -9 30 C-7.60152532 23.11357167 -5.64985223 16.58173303 -3.375 9.9375 C-3.05015625 8.97650391 -2.7253125 8.01550781 -2.390625 7.02539062 C-1.59788808 4.68215356 -0.80095424 2.34043824 0 0 Z " fill="#BB373F" transform="translate(322,236)"/>
<path d="M0 0 C5.35118144 8.02677216 4.96338408 20.58166063 3.32421875 29.80078125 C2.60017651 33.21510366 1.83132689 36.61036359 1 40 C0.67 40 0.34 40 0 40 C-0.04241723 37.66705225 -0.04092937 35.33297433 0 33 C0.495 32.505 0.495 32.505 1 32 C1.15714654 30.36743242 1.25085414 28.72864662 1.31640625 27.08984375 C1.37924805 25.60581055 1.37924805 25.60581055 1.44335938 24.09179688 C1.50233398 22.53041992 1.50233398 22.53041992 1.5625 20.9375 C1.60568359 19.89271484 1.64886719 18.84792969 1.69335938 17.77148438 C1.79981225 15.18113116 1.9018276 12.59067814 2 10 C1.01 10 0.02 10 -1 10 C-0.67 6.7 -0.34 3.4 0 0 Z " fill="#B8474F" transform="translate(489,230)"/>
<path d="M0 0 C-1.57313172 4.72843614 -4.20641235 8.3433843 -7.125 12.3125 C-7.59292969 12.95767578 -8.06085938 13.60285156 -8.54296875 14.26757812 C-9.6905929 15.84848894 -10.84465477 17.42472301 -12 19 C-12.33 17.68 -12.66 16.36 -13 15 C-12.34 14.67 -11.68 14.34 -11 14 C-10.67 13.01 -10.34 12.02 -10 11 C-9.34 11 -8.68 11 -8 11 C-8 10.34 -8 9.68 -8 9 C-8.66 9 -9.32 9 -10 9 C-10 5 -10 5 -8.75 3.375 C-5.78459592 1.04503965 -3.81339031 0 0 0 Z " fill="#BD2D35" transform="translate(186,217)"/>
<path d="M0 0 C-3.69739849 1.24910036 -7.39616995 2.4940417 -11.09619141 3.73535156 C-12.96458525 4.36310122 -14.83191325 4.99402032 -16.69921875 5.625 C-22.76085801 7.65646829 -28.76468223 9.58146521 -35 11 C-35.33 10.34 -35.66 9.68 -36 9 C-34.98679687 8.74605469 -33.97359375 8.49210937 -32.9296875 8.23046875 C-31.57803342 7.88316874 -30.22647599 7.53549241 -28.875 7.1875 C-28.20984375 7.02185547 -27.5446875 6.85621094 -26.859375 6.68554688 C-22.58651377 5.57544077 -18.94724662 4.01952153 -15 2 C-12.125 1.8125 -12.125 1.8125 -10 2 C-10 1.34 -10 0.68 -10 0 C-3.375 -1.125 -3.375 -1.125 0 0 Z " fill="#B73A42" transform="translate(395,349)"/>
<path d="M0 0 C3.19249477 2.96647745 5.4592987 6.04963636 7.75 9.75 C8.36359375 10.73484375 8.9771875 11.7196875 9.609375 12.734375 C10.29773438 13.85585938 10.29773438 13.85585938 11 15 C9.35 15.33 7.7 15.66 6 16 C6 15.01 6 14.02 6 13 C4.68 13.33 3.36 13.66 2 14 C2.20625 13.401875 2.4125 12.80375 2.625 12.1875 C3.30671915 9.71549154 3.30671915 9.71549154 1 7 C1.33 6.01 1.66 5.02 2 4 C1.01 4.33 0.02 4.66 -1 5 C-0.67 3.35 -0.34 1.7 0 0 Z " fill="#C32C32" transform="translate(166,248)"/>
<path d="M0 0 C0.66 0.99 1.32 1.98 2 3 C1.34 3.66 0.68 4.32 0 5 C-0.99 4.34 -1.98 3.68 -3 3 C-3.66 4.32 -4.32 5.64 -5 7 C-6.65 7 -8.3 7 -10 7 C-9.34 6.34 -8.68 5.68 -8 5 C-12.95 5 -17.9 5 -23 5 C-23 4.67 -23 4.34 -23 4 C-15.41 2.68 -7.82 1.36 0 0 Z " fill="#BD2F35" transform="translate(342,336)"/>
<path d="M0 0 C1.98 0 3.96 0 6 0 C5.67 1.65 5.34 3.3 5 5 C3.68 4.01 2.36 3.02 1 2 C1 16.19 1 30.38 1 45 C0.01 45.495 0.01 45.495 -1 46 C-0.67 30.82 -0.34 15.64 0 0 Z " fill="#AE3136" transform="translate(133,262)"/>
<path d="M0 0 C0 0.33 0 0.66 0 1 C-1.60681641 1.19916016 -1.60681641 1.19916016 -3.24609375 1.40234375 C-4.64325769 1.5805056 -6.04039159 1.75890319 -7.4375 1.9375 C-8.14455078 2.02451172 -8.85160156 2.11152344 -9.58007812 2.20117188 C-13.08817968 2.38216191 -13.08817968 2.38216191 -16 4 C-17.92667507 4.08748207 -19.85651861 4.10697334 -21.78515625 4.09765625 C-22.95498047 4.09443359 -24.12480469 4.09121094 -25.33007812 4.08789062 C-27.17762695 4.07532227 -27.17762695 4.07532227 -29.0625 4.0625 C-30.91584961 4.05573242 -30.91584961 4.05573242 -32.80664062 4.04882812 C-35.87114117 4.03699608 -38.93554721 4.02051173 -42 4 C-42 3.67 -42 3.34 -42 3 C-37.30477018 2.56814912 -32.60913789 2.14107897 -27.91308594 1.71826172 C-26.31856815 1.57403884 -24.72416395 1.42855403 -23.12988281 1.28173828 C-20.82646581 1.06984698 -18.52266636 0.86263236 -16.21875 0.65625 C-15.51633179 0.59062866 -14.81391357 0.52500732 -14.09020996 0.45739746 C-9.37564765 0.04103707 -4.73314714 -0.05568408 0 0 Z " fill="#B2383D" transform="translate(318,341)"/>
<path d="M0 0 C0.66 0 1.32 0 2 0 C2 0.66 2 1.32 2 2 C2.66 2 3.32 2 4 2 C4.33 2.66 4.66 3.32 5 4 C7.01669827 5.13350534 7.01669827 5.13350534 9 6 C9 6.66 9 7.32 9 8 C10.32 8.33 11.64 8.66 13 9 C12.67 11.31 12.34 13.62 12 16 C7.49486569 11.76790414 3.485708 7.11304141 0 2 C0 1.34 0 0.68 0 0 Z " fill="#C22D34" transform="translate(19,287)"/>
<path d="M0 0 C0.33 0 0.66 0 1 0 C2.13764351 4.26616316 3 7.56486311 3 12 C3.66 12 4.32 12 5 12 C5 12.66 5 13.32 5 14 C5.66 14.33 6.32 14.66 7 15 C7.5625 16.9609375 7.5625 16.9609375 8 19.375 C8.60200113 22.67525619 9.07605982 24.11408973 11 27 C10.67 27.99 10.34 28.98 10 30 C-0.75413741 9.55240722 -0.75413741 9.55240722 0 0 Z " fill="#B63D46" transform="translate(8,257)"/>
<path d="M0 0 C6.7685324 -0.10152799 13.30324864 -0.03026944 20 1 C20 1.33 20 1.66 20 2 C18.35 2.33 16.7 2.66 15 3 C14.67 3.99 14.34 4.98 14 6 C13.40832031 5.79503906 12.81664062 5.59007812 12.20703125 5.37890625 C8.16339184 4.0002429 4.23144751 2.68249153 0 2 C0 1.34 0 0.68 0 0 Z " fill="#BE3138" transform="translate(288,129)"/>
<path d="M0 0 C0.66 0.33 1.32 0.66 2 1 C1.4375 3.375 1.4375 3.375 0 6 C-2.31939207 6.7136591 -4.65523449 7.3747292 -7 8 C-10.64339118 10.71468363 -13.85128285 13.73017835 -17 17 C-17 14 -17 14 -15.05859375 11.9140625 C-10.1942085 7.66588104 -5.35808234 3.61088158 0 0 Z " fill="#BA3B44" transform="translate(55,176)"/>
<path d="M0 0 C4.67199091 1.53093488 8.02170005 4.10757395 11.8125 7.125 C12.40998047 7.59292969 13.00746094 8.06085938 13.62304688 8.54296875 C15.08616792 9.69005565 16.54366297 10.84431234 18 12 C16.125 13.0625 16.125 13.0625 14 14 C13.34 13.67 12.68 13.34 12 13 C11.87625 12.195625 11.7525 11.39125 11.625 10.5625 C11.28023916 7.90439861 11.28023916 7.90439861 9.25 6.8125 C8.5075 6.544375 7.765 6.27625 7 6 C6.0925 5.62875 5.185 5.2575 4.25 4.875 C3.13625 4.441875 3.13625 4.441875 2 4 C2 3.34 2 2.68 2 2 C1.34 2 0.68 2 0 2 C0 1.34 0 0.68 0 0 Z " fill="#B93A41" transform="translate(441,175)"/>
<path d="M0 0 C0.66 0.66 1.32 1.32 2 2 C1.67 2.33 1.34 2.66 1 3 C6.55079437 5.92678249 12.00067626 8.1668733 18 10 C18 10.66 18 11.32 18 12 C9.63019764 9.80148049 1.88172441 6.50929804 -6 3 C-5.38125 2.87625 -4.7625 2.7525 -4.125 2.625 C-1.80879168 2.12802644 -1.80879168 2.12802644 0 0 Z " fill="#B7383F" transform="translate(94,339)"/>
<path d="M0 0 C0.43570313 0.37511719 0.87140625 0.75023437 1.3203125 1.13671875 C5.18607599 4.45859777 9.07657648 7.74642927 13 11 C12.34 11.66 11.68 12.32 11 13 C7.625 12.375 7.625 12.375 4 11 C2.6875 8.1875 2.6875 8.1875 2 5 C1.34588315 3.32836805 0.68346682 1.65984798 0 0 Z " fill="#C64950" transform="translate(39,283)"/>
<path d="M0 0 C0.99 0.33 1.98 0.66 3 1 C2.01 1.33 1.02 1.66 0 2 C-0.1546875 3.0828125 -0.1546875 3.0828125 -0.3125 4.1875 C-1.05986932 7.24491993 -2.28045189 9.38329635 -4 12 C-4.99 11.67 -5.98 11.34 -7 11 C-7.66 12.32 -8.32 13.64 -9 15 C-9.99 15 -10.98 15 -12 15 C-8.04 10.05 -4.08 5.1 0 0 Z " fill="#BA393F" transform="translate(147,217)"/>
<path d="M0 0 C5.852795 0.51482919 11.3297637 1.45357192 17 3 C17 3.66 17 4.32 17 5 C11.555 5.495 11.555 5.495 6 6 C6.66 4.68 7.32 3.36 8 2 C5.69 2.66 3.38 3.32 1 4 C0.67 2.68 0.34 1.36 0 0 Z " fill="#BD282A" transform="translate(339,136)"/>
<path d="M0 0 C0.83805176 0.32145996 1.67610352 0.64291992 2.53955078 0.97412109 C6.28453717 2.08435341 9.46679289 2.3173585 13.3671875 2.4140625 C14.04677521 2.43342865 14.72636292 2.4527948 15.42654419 2.4727478 C17.57590579 2.53205099 19.72532241 2.57872891 21.875 2.625 C23.3411679 2.66322532 24.80731443 2.70227964 26.2734375 2.7421875 C29.84876164 2.83771044 33.42424748 2.92192126 37 3 C37 3.33 37 3.66 37 4 C32.21287067 4.09886835 27.42633525 4.17146623 22.63842773 4.21972656 C21.00974171 4.23984381 19.38112792 4.26714137 17.75268555 4.30175781 C15.41176542 4.35027429 13.07179982 4.37296632 10.73046875 4.390625 C10.00224411 4.41127014 9.27401947 4.43191528 8.52372742 4.45318604 C6.46166992 4.45410156 6.46166992 4.45410156 3 4 C1.0168457 1.97558594 1.0168457 1.97558594 0 0 Z " fill="#BB2D33" transform="translate(168,304)"/>
<path d="M0 0 C0.99 0 1.98 0 3 0 C3.06058594 0.78246094 3.12117188 1.56492188 3.18359375 2.37109375 C3.26738281 3.38300781 3.35117187 4.39492187 3.4375 5.4375 C3.55931641 6.95150391 3.55931641 6.95150391 3.68359375 8.49609375 C3.73211468 10.93640779 3.73211468 10.93640779 5 12 C5.07205511 13.68608966 5.08386068 15.37500659 5.0625 17.0625 C5.05347656 17.98160156 5.04445313 18.90070313 5.03515625 19.84765625 C5.02355469 20.55792969 5.01195312 21.26820313 5 22 C4.34 22.33 3.68 22.66 3 23 C2.80083984 21.38931641 2.80083984 21.38931641 2.59765625 19.74609375 C2.41930436 18.30989167 2.24091705 16.87369399 2.0625 15.4375 C1.97548828 14.73302734 1.88847656 14.02855469 1.79882812 13.30273438 C1.24615509 8.86088073 0.64605404 4.42925336 0 0 Z " fill="#AF2F31" transform="translate(472,233)"/>
<path d="M0 0 C0.66 0 1.32 0 2 0 C1.86722656 0.65484375 1.73445313 1.3096875 1.59765625 1.984375 C0.24474535 8.97606051 -0.52892482 15.89668212 -1 23 C-1.66 22.67 -2.32 22.34 -3 22 C-3.02686553 20.02090602 -3.04633375 18.04171029 -3.0625 16.0625 C-3.07410156 14.96035156 -3.08570312 13.85820312 -3.09765625 12.72265625 C-3 10 -3 10 -2 9 C-1.60851239 7.48834346 -1.26027543 5.96530368 -0.9375 4.4375 C-0.76089844 3.61121094 -0.58429687 2.78492188 -0.40234375 1.93359375 C-0.26957031 1.29550781 -0.13679688 0.65742188 0 0 Z " fill="#B5343D" transform="translate(26,234)"/>
<path d="M0 0 C0.33 0.66 0.66 1.32 1 2 C3.32156597 2.40729228 5.6568787 2.74438677 8 3 C4.80009492 5.74277578 1.99500618 7.6302836 -2 9 C-2 6.36 -2 3.72 -2 1 C-1.34 0.67 -0.68 0.34 0 0 Z " fill="#C03238" transform="translate(437,320)"/>
<path d="M0 0 C0.33 0.66 0.66 1.32 1 2 C-2.67853181 3.22617727 -5.78203627 3.02899914 -9.625 2.9375 C-12.1512134 2.88864801 -12.1512134 2.88864801 -15 4 C-16.72795352 4.06802967 -18.45835365 4.08495645 -20.1875 4.0625 C-21.53908203 4.04896484 -21.53908203 4.04896484 -22.91796875 4.03515625 C-23.60503906 4.02355469 -24.29210937 4.01195312 -25 4 C-25 3.67 -25 3.34 -25 3 C-22.3347536 2.49118023 -19.66821581 1.99279859 -17 1.5 C-15.88431641 1.28537109 -15.88431641 1.28537109 -14.74609375 1.06640625 C-9.74779985 0.15367432 -5.08079684 -0.13856719 0 0 Z " fill="#B63641" transform="translate(192,131)"/>
<path d="M0 0 C2.59330782 3.09202086 4.96315744 6.30311732 7.25 9.625 C8.03117187 10.75808594 8.03117187 10.75808594 8.828125 11.9140625 C10 14 10 14 10 17 C9.278125 16.113125 8.55625 15.22625 7.8125 14.3125 C6.02348079 12.12989656 4.32135927 10.39676379 2.1875 8.5 C0 6 0 6 -0.3125 2.6875 C-0.209375 1.800625 -0.10625 0.91375 0 0 Z M0 8 C0.99 8.495 0.99 8.495 2 9 C1.67 9.66 1.34 10.32 1 11 C0.67 10.01 0.34 9.02 0 8 Z " fill="#B6363B" transform="translate(28,267)"/>
<path d="M0 0 C1.8871875 0.0309375 1.8871875 0.0309375 3.8125 0.0625 C3.8125 0.3925 3.8125 0.7225 3.8125 1.0625 C2.1625 1.3925 0.5125 1.7225 -1.1875 2.0625 C-1.1875 2.3925 -1.1875 2.7225 -1.1875 3.0625 C-9.7675 3.3925 -18.3475 3.7225 -27.1875 4.0625 C-27.1875 3.7325 -27.1875 3.4025 -27.1875 3.0625 C-26.30227661 2.97947632 -26.30227661 2.97947632 -25.39916992 2.89477539 C-22.72408792 2.64182313 -20.04955397 2.383473 -17.375 2.125 C-16.44623047 2.03798828 -15.51746094 1.95097656 -14.56054688 1.86132812 C-13.2215332 1.73081055 -13.2215332 1.73081055 -11.85546875 1.59765625 C-11.03328857 1.519104 -10.2111084 1.44055176 -9.36401367 1.35961914 C-6.06379548 0.90910141 -3.38065284 -0.05542054 0 0 Z " fill="#AF3D42" transform="translate(231.1875,152.9375)"/>
<path d="M0 0 C2.475 0.495 2.475 0.495 5 1 C1.62239627 3.25173582 -0.98222224 3.8366795 -4.9375 4.6875 C-6.16339844 4.95949219 -7.38929688 5.23148437 -8.65234375 5.51171875 C-11.62455864 5.94523901 -13.23924385 6.03095906 -16 5 C-15 4 -15 4 -11.9375 3.9375 C-10.4834375 3.9684375 -10.4834375 3.9684375 -9 4 C-9 3.34 -9 2.68 -9 2 C-6.03 2 -3.06 2 0 2 C0 1.34 0 0.68 0 0 Z " fill="#B5383E" transform="translate(351,359)"/>
<path d="M0 0 C1.32 0.66 2.64 1.32 4 2 C2.41728767 3.27160666 0.83380365 4.54225285 -0.75 5.8125 C-1.63171875 6.52019531 -2.5134375 7.22789062 -3.421875 7.95703125 C-5.58992929 9.67505002 -7.77728901 11.35373976 -10 13 C-10.33 11.68 -10.66 10.36 -11 9 C-10.236875 8.773125 -9.47375 8.54625 -8.6875 8.3125 C-5.41576791 6.71467735 -4.72329673 5.13326678 -3 2 C-2.01 1.34 -1.02 0.68 0 0 Z " fill="#BE4045" transform="translate(53,200)"/>
<path d="M0 0 C1.32 0.33 2.64 0.66 4 1 C4 1.99 4 2.98 4 4 C4.99 4 5.98 4 7 4 C7 4.66 7 5.32 7 6 C7.66 6 8.32 6 9 6 C10.72264494 9.29549466 12.29445932 12.33118845 13 16 C8.14396737 11.44746941 3.97880604 6.33140264 0 1 C0 0.67 0 0.34 0 0 Z " fill="#B93A44" transform="translate(155,288)"/>
<path d="M0 0 C10.55808656 3.07517084 10.55808656 3.07517084 15 5 C14.401875 5.12375 13.80375 5.2475 13.1875 5.375 C10.73768652 5.95475985 10.73768652 5.95475985 8 8 C7.67 6.68 7.34 5.36 7 4 C6.01 4.33 5.02 4.66 4 5 C1.3125 3.0625 1.3125 3.0625 -1 1 C-0.67 0.67 -0.34 0.34 0 0 Z " fill="#BD373D" transform="translate(393,151)"/>
<path d="M0 0 C0.33 0.99 0.66 1.98 1 3 C0.0925 3.12375 -0.815 3.2475 -1.75 3.375 C-4.86957106 3.80575777 -4.86957106 3.80575777 -6.90625 5.03125 C-9.36378687 6.1683193 -11.05891375 6.2041496 -13.75 6.125 C-14.54921875 6.10695313 -15.3484375 6.08890625 -16.171875 6.0703125 C-16.77515625 6.04710937 -17.3784375 6.02390625 -18 6 C-14.41412982 3.98973944 -10.69906354 2.97196209 -6.75 1.875 C-4.85507812 1.34519531 -4.85507812 1.34519531 -2.921875 0.8046875 C-1.95765625 0.53914063 -0.9934375 0.27359375 0 0 Z " fill="#B33537" transform="translate(379,327)"/>
<path d="M0 0 C0.66 0.66 1.32 1.32 2 2 C2.99 2 3.98 2 5 2 C6.97574518 5.95149036 5.07459688 10.86553403 4 15 C3.32779649 13.06441401 2.66241923 11.12645628 2 9.1875 C1.62875 8.10855469 1.2575 7.02960938 0.875 5.91796875 C0 3 0 3 0 0 Z " fill="#B62C34" transform="translate(361,240)"/>
<path d="M0 0 C2.31 0.33 4.62 0.66 7 1 C7.33 1.99 7.66 2.98 8 4 C8.66 4 9.32 4 10 4 C10.33 5.32 10.66 6.64 11 8 C6.40378078 6.5129879 3.53027653 4.20187872 0 1 C0 0.67 0 0.34 0 0 Z " fill="#B73139" transform="translate(45,315)"/>
<path d="M0 0 C0.99 0.33 1.98 0.66 3 1 C2.75 3.375 2.75 3.375 2 6 C-0.0625 7.3125 -0.0625 7.3125 -2 8 C-1.67 8.99 -1.34 9.98 -1 11 C-1.99 11.33 -2.98 11.66 -4 12 C-3.52494322 10.18641846 -3.04483958 8.37415821 -2.5625 6.5625 C-2.29566406 5.55316406 -2.02882813 4.54382813 -1.75390625 3.50390625 C-1 1 -1 1 0 0 Z " fill="#BF343D" transform="translate(474,259)"/>
<path d="M0 0 C0.99 0 1.98 0 3 0 C1.6302836 3.99500618 -0.25722422 6.80009492 -3 10 C-3.99 7.36 -4.98 4.72 -6 2 C-4.02 2.66 -2.04 3.32 0 4 C0 2.68 0 1.36 0 0 Z " fill="#BE3C44" transform="translate(31,223)"/>
<path d="M0 0 C3.07662425 0.57686705 6.09708218 1.27479444 9.125 2.0625 C12.82151362 3.11757566 12.82151362 3.11757566 16 3 C16 3.66 16 4.32 16 5 C16.99 5.33 17.98 5.66 19 6 C16.45635984 7.27182008 15.75536947 6.82067275 13.0859375 6.00390625 C12.32539063 5.77509766 11.56484375 5.54628906 10.78125 5.31054688 C9.9871875 5.06369141 9.193125 4.81683594 8.375 4.5625 C7.57320313 4.31951172 6.77140625 4.07652344 5.9453125 3.82617188 C3.96155332 3.22395927 1.98051018 2.61281311 0 2 C0 1.34 0 0.68 0 0 Z " fill="#B5363F" transform="translate(372,169)"/>
<path d="M0 0 C6.1112924 1.0388092 12.07704464 2.15730278 18 4 C17.67 4.99 17.34 5.98 17 7 C16.030625 6.54625 15.06125 6.0925 14.0625 5.625 C10.39252586 4.02642231 6.75092861 3.22686018 2.8203125 2.52734375 C2.21960938 2.35332031 1.61890625 2.17929688 1 2 C0.67 1.34 0.34 0.68 0 0 Z " fill="#B4393F" transform="translate(357,140)"/>
<path d="M0 0 C0.99 0 1.98 0 3 0 C3 1.66666667 3 3.33333333 3 5 C4.32 5 5.64 5 7 5 C7 5.99 7 6.98 7 8 C7.66 8.33 8.32 8.66 9 9 C8.34 9 7.68 9 7 9 C6.67 9.66 6.34 10.32 6 11 C0 5 0 5 -0.0625 2.4375 C-0.041875 1.633125 -0.02125 0.82875 0 0 Z " fill="#BC2F3A" transform="translate(95,194)"/>
<path d="M0 0 C1.18851563 0.00902344 2.37703125 0.01804688 3.6015625 0.02734375 C4.51679688 0.03894531 5.43203125 0.05054688 6.375 0.0625 C6.375 0.3925 6.375 0.7225 6.375 1.0625 C-1.05 2.5475 -1.05 2.5475 -8.625 4.0625 C-8.625 3.0725 -8.625 2.0825 -8.625 1.0625 C-5.74084117 -0.37957941 -3.20778472 -0.03144887 0 0 Z " fill="#BC3E46" transform="translate(151.625,162.9375)"/>
<path d="M0 0 C2 1 2 1 3.4375 2.5 C5.0377353 4.25083992 5.0377353 4.25083992 8 5 C8.33 5.99 8.66 6.98 9 8 C4.1725201 6.58707905 0.2837641 4.57025846 -4 2 C-2.125 0.9375 -2.125 0.9375 0 0 Z " fill="#BA484D" transform="translate(76,332)"/>
<path d="M0 0 C0.99 0.33 1.98 0.66 3 1 C1.02 4.96 -0.96 8.92 -3 13 C-4.09658936 9.71023192 -3.79953138 8.28696233 -3 5 C-2.34 5 -1.68 5 -1 5 C-0.67 3.35 -0.34 1.7 0 0 Z " fill="#BD3B41" transform="translate(485,274)"/>
<path d="M0 0 C0.99 0 1.98 0 3 0 C4.26264601 4.29299643 3.62950412 6.87831311 2 11 C1.67 11 1.34 11 1 11 C0.63890458 9.35567294 0.28629924 7.7094792 -0.0625 6.0625 C-0.25972656 5.14597656 -0.45695312 4.22945313 -0.66015625 3.28515625 C-0.77230469 2.53105469 -0.88445312 1.77695312 -1 1 C-0.67 0.67 -0.34 0.34 0 0 Z " fill="#C43239" transform="translate(338,274)"/>
<path d="M0 0 C-0.125 1.875 -0.125 1.875 -1 4 C-4.73397847 5.69726294 -7.92157346 6.23990744 -12 6 C-10.02433812 4.02433812 -8.47662906 3.10420928 -6 1.875 C-5.29875 1.52179688 -4.5975 1.16859375 -3.875 0.8046875 C-2 0 -2 0 0 0 Z " fill="#BD4C52" transform="translate(422,311)"/>
<path d="M0 0 C0.33 1.32 0.66 2.64 1 4 C0.16855469 4.50660156 0.16855469 4.50660156 -0.6796875 5.0234375 C-1.40414063 5.46945312 -2.12859375 5.91546875 -2.875 6.375 C-3.59429687 6.81585938 -4.31359375 7.25671875 -5.0546875 7.7109375 C-7.11793582 8.9853713 -7.11793582 8.9853713 -9 11 C-9.66 10.34 -10.32 9.68 -11 9 C-10.37351562 8.51789063 -9.74703125 8.03578125 -9.1015625 7.5390625 C-7.87566406 6.59160156 -7.87566406 6.59160156 -6.625 5.625 C-5.81289063 4.99851562 -5.00078125 4.37203125 -4.1640625 3.7265625 C-1.95776805 2.03226506 -1.95776805 2.03226506 0 0 Z " fill="#BE474F" transform="translate(455,288)"/>
<path d="M0 0 C0.33 1.32 0.66 2.64 1 4 C-3.455 7.96 -3.455 7.96 -8 12 C-8.66 11.67 -9.32 11.34 -10 11 C-9.52949219 10.54109375 -9.05898438 10.0821875 -8.57421875 9.609375 C-3.96631602 5.08450705 -3.96631602 5.08450705 0 0 Z " fill="#BF505A" transform="translate(466,276)"/>
<path d="M0 0 C3.25195722 4.87793583 3.11325659 9.22391379 3 15 C2.67 15 2.34 15 2 15 C2 13.35 2 11.7 2 10 C1.01 10 0.02 10 -1 10 C-0.67 6.7 -0.34 3.4 0 0 Z " fill="#B7343B" transform="translate(489,230)"/>
<path d="M0 0 C4.77609498 1.64178265 8.79382904 4.26546702 13 7 C10.53721199 8.231394 8.7204945 8.07159196 6 8 C6 6.68 6 5.36 6 4 C4.02 3.34 2.04 2.68 0 2 C0 1.34 0 0.68 0 0 Z " fill="#BA3940" transform="translate(428,167)"/>
<path d="M0 0 C-1.93232821 0.86580287 -3.87107194 1.71729941 -5.8125 2.5625 C-6.89144531 3.03816406 -7.97039062 3.51382812 -9.08203125 4.00390625 C-12 5 -12 5 -15 4 C-12 2 -12 2 -9 2 C-9 1.34 -9 0.68 -9 0 C-3.375 -1.125 -3.375 -1.125 0 0 Z " fill="#B5393F" transform="translate(410,343)"/>
<path d="M0 0 C0.99 0 1.98 0 3 0 C1.87548273 2.9719385 0.77706209 5.33440687 -1 8 C-1.99 7.67 -2.98 7.34 -4 7 C-2.92598892 4.08482708 -2.22189824 2.22189824 0 0 Z " fill="#BF3740" transform="translate(183,217)"/>
<path d="M0 0 C4.23429756 1.31061591 8.07407404 2.94356259 12 5 C8.65367153 6.11544282 7.36086161 5.67217232 4 5 C3.01 5.33 2.02 5.66 1 6 C1.33 4.68 1.66 3.36 2 2 C1.34 2 0.68 2 0 2 C0 1.34 0 0.68 0 0 Z " fill="#B52C34" transform="translate(416,161)"/>
<path d="M0 0 C2.82858266 3.36736031 4.4998253 6.87451958 6 11 C5.67 11.99 5.34 12.98 5 14 C2.90250005 11.64031256 2.03094296 10.45383006 1.8125 7.25 C1.874375 6.5075 1.93625 5.765 2 5 C1.34 5 0.68 5 0 5 C0 3.35 0 1.7 0 0 Z " fill="#BC4047" transform="translate(483,216)"/>
<path d="M0 0 C0.94604983 3.44216591 1.17741032 5.55186978 0 9 C-2.5625 11.8125 -2.5625 11.8125 -5 14 C-4.34580901 8.93001981 -2.1453591 4.58009223 0 0 Z " fill="#BA3E45" transform="translate(16,216)"/>
<path d="M0 0 C0.33 0 0.66 0 1 0 C1.33 2.97 1.66 5.94 2 9 C-0.31 7.02 -2.62 5.04 -5 3 C-4.34 2.67 -3.68 2.34 -3 2 C-2.34 2.33 -1.68 2.66 -1 3 C-0.67 2.01 -0.34 1.02 0 0 Z " fill="#C74A4D" transform="translate(460,209)"/>
<path d="M0 0 C0 0.66 0 1.32 0 2 C-0.639375 2.12375 -1.27875 2.2475 -1.9375 2.375 C-2.618125 2.58125 -3.29875 2.7875 -4 3 C-4.33 3.66 -4.66 4.32 -5 5 C-7.64860427 5.59355614 -10.29197322 5.74209269 -13 6 C-10.83049884 3.57206296 -8.99994161 2.3943719 -5.9375 1.3125 C-5.24527344 1.06113281 -4.55304688 0.80976563 -3.83984375 0.55078125 C-2 0 -2 0 0 0 Z " fill="#B4343B" transform="translate(107,151)"/>
<path d="M0 0 C1.58367747 0.14204741 3.16693318 0.28880153 4.75 0.4375 C5.63171875 0.51871094 6.5134375 0.59992188 7.421875 0.68359375 C9.69350452 0.96238465 11.79851823 1.38790577 14 2 C14 2.66 14 3.32 14 4 C8.57960425 4.40652968 4.92984325 3.03993514 0 1 C0 0.67 0 0.34 0 0 Z " fill="#B23A40" transform="translate(324,133)"/>
<path d="M0 0 C0.33 1.32 0.66 2.64 1 4 C-0.3125 5.75 -0.3125 5.75 -2 7 C-2.66 7 -3.32 7 -4 7 C-4.66 8.32 -5.32 9.64 -6 11 C-6.66 10.67 -7.32 10.34 -8 10 C-5.36 6.7 -2.72 3.4 0 0 Z " fill="#B9444C" transform="translate(163,196)"/>
<path d="M0 0 C5.2584002 0.67415387 10.02638346 2.24265549 15 4 C15 4.66 15 5.32 15 6 C4.44191344 2.92482916 4.44191344 2.92482916 0 1 C0 0.67 0 0.34 0 0 Z " fill="#B53C45" transform="translate(392,176)"/>
<path d="M0 0 C0.66 0.33 1.32 0.66 2 1 C-1.01352858 5.52029288 -5.77047104 6.95409421 -11 8 C-7.71644638 4.32241995 -4.37221763 2.18610882 0 0 Z " fill="#B53D45" transform="translate(70,167)"/>
<path d="M0 0 C1.41750563 0.11509661 2.83401169 0.24253658 4.25 0.375 C5.03890625 0.44460937 5.8278125 0.51421875 6.640625 0.5859375 C9.085877 1.01507113 10.84836903 1.78600638 13 3 C8.66666667 3 4.33333333 3 0 3 C0 2.01 0 1.02 0 0 Z " fill="#BA3940" transform="translate(339,136)"/>
<path d="M0 0 C0.66 0 1.32 0 2 0 C2 0.66 2 1.32 2 2 C2.66 2 3.32 2 4 2 C7.22265625 7.2734375 7.22265625 7.2734375 8 9 C7.67 9.66 7.34 10.32 7 11 C5.82750647 9.54634731 4.66216184 8.08692581 3.5 6.625 C2.52546875 5.40683594 2.52546875 5.40683594 1.53125 4.1640625 C0 2 0 2 0 0 Z " fill="#BA464B" transform="translate(19,287)"/>
<path d="M0 0 C0.99 0 1.98 0 3 0 C3 3.96 3 7.92 3 12 C2.67 12 2.34 12 2 12 C1.34 8.04 0.68 4.08 0 0 Z " fill="#B93B44" transform="translate(472,233)"/>
<path d="M0 0 C0 0.66 0 1.32 0 2 C0.66 2 1.32 2 2 2 C2 2.66 2 3.32 2 4 C-0.64 3.34 -3.28 2.68 -6 2 C-6 1.34 -6 0.68 -6 0 C-3 -1 -3 -1 0 0 Z " fill="#BA353A" transform="translate(135,355)"/>
<path d="M0 0 C0.721875 0.474375 1.44375 0.94875 2.1875 1.4375 C4.89475226 2.94152903 6.96194275 3.56599182 10 4 C10 4.66 10 5.32 10 6 C7.69 5.67 5.38 5.34 3 5 C3 4.34 3 3.68 3 3 C1.68 2.67 0.36 2.34 -1 2 C-0.67 1.34 -0.34 0.68 0 0 Z " fill="#BB2B34" transform="translate(358,163)"/>
<path d="M0 0 C1.4391134 0.28359887 2.87625518 0.57721399 4.3125 0.875 C5.11300781 1.03742188 5.91351563 1.19984375 6.73828125 1.3671875 C9 2 9 2 12 4 C7.53160785 4.21278058 4.17737474 3.59138085 0 2 C0 1.34 0 0.68 0 0 Z " fill="#B23740" transform="translate(105,323)"/>
<path d="M0 0 C0.99 0.33 1.98 0.66 3 1 C2.67 1.99 2.34 2.98 2 4 C1.34 4 0.68 4 0 4 C-0.33 4.66 -0.66 5.32 -1 6 C-1.66 4.68 -2.32 3.36 -3 2 C-2.01 1.34 -1.02 0.68 0 0 Z " fill="#C12930" transform="translate(51,295)"/>
<path d="M0 0 C0.99 0 1.98 0 3 0 C3.33 1.32 3.66 2.64 4 4 C3.01 4 2.02 4 1 4 C0.67 4.99 0.34 5.98 0 7 C-0.66 6.67 -1.32 6.34 -2 6 C-1.34 4.02 -0.68 2.04 0 0 Z " fill="#C5474C" transform="translate(306,283)"/>
<path d="M0 0 C3.08089673 2.77280706 4.68775452 5.06326356 6 9 C3 7.3125 3 7.3125 0 5 C-0.375 2.25 -0.375 2.25 0 0 Z " fill="#BB3D47" transform="translate(188,279)"/>
<path d="M0 0 C0.66 0 1.32 0 2 0 C2.33 2.31 2.66 4.62 3 7 C2.01 7 1.02 7 0 7 C-1.125 2.25 -1.125 2.25 0 0 Z " fill="#C24B53" transform="translate(230,193)"/>
<path d="M0 0 C-2.85306797 2.32472205 -5.54074837 3.7508258 -9 5 C-8.625 3.0625 -8.625 3.0625 -8 1 C-5.29120665 -0.35439668 -2.99066732 -0.06501451 0 0 Z " fill="#B62C37" transform="translate(81,187)"/>
<path d="M0 0 C3.08089673 2.77280706 4.68775452 5.06326356 6 9 C5.401875 8.34 4.80375 7.68 4.1875 7 C2.12498166 4.6626154 2.12498166 4.6626154 -1 5 C-0.67 3.35 -0.34 1.7 0 0 Z " fill="#BB3B47" transform="translate(166,248)"/>
<path d="M0 0 C1.32 1.32 2.64 2.64 4 4 C3.01 4.495 3.01 4.495 2 5 C2 4.34 2 3.68 2 3 C0.68 3 -0.64 3 -2 3 C-2 3.66 -2 4.32 -2 5 C-2.99 4.67 -3.98 4.34 -5 4 C-5 3.34 -5 2.68 -5 2 C-3.35 2 -1.7 2 0 2 C0 1.34 0 0.68 0 0 Z " fill="#BF333A" transform="translate(375,193)"/>
<path d="M0 0 C0.33 0.99 0.66 1.98 1 3 C-0.423125 3.2165625 -0.423125 3.2165625 -1.875 3.4375 C-4.8934494 3.82935399 -4.8934494 3.82935399 -7 5 C-7 4.01 -7 3.02 -7 2 C-4.69 1.34 -2.38 0.68 0 0 Z " fill="#C0454D" transform="translate(379,327)"/>
<path d="M0 0 C1.98 0 3.96 0 6 0 C5.67 1.65 5.34 3.3 5 5 C3.68 4.01 2.36 3.02 1 2 C0.67 2.66 0.34 3.32 0 4 C0 2.68 0 1.36 0 0 Z " fill="#BF3E46" transform="translate(133,262)"/>
<path d="M0 0 C0.66 0.99 1.32 1.98 2 3 C1.34 3.66 0.68 4.32 0 5 C-2.475 4.01 -2.475 4.01 -5 3 C-5 2.34 -5 1.68 -5 1 C-3.35 0.67 -1.7 0.34 0 0 Z " fill="#BF3B43" transform="translate(342,336)"/>
<path d="M0 0 C0.99 0.99 1.98 1.98 3 3 C1.35 4.32 -0.3 5.64 -2 7 C-2.33 5.68 -2.66 4.36 -3 3 C-2.01 3 -1.02 3 0 3 C0 2.01 0 1.02 0 0 Z " fill="#D0565F" transform="translate(467,300)"/>
<path d="M0 0 C0.33 0 0.66 0 1 0 C1.6875 2.8125 1.6875 2.8125 2 6 C0.5625 7.875 0.5625 7.875 -1 9 C-1.66 8.67 -2.32 8.34 -3 8 C-2.01 5.36 -1.02 2.72 0 0 Z " fill="#BC2730" transform="translate(18,213)"/>
<path d="M0 0 C1.8871875 0.0309375 1.8871875 0.0309375 3.8125 0.0625 C3.8125 0.3925 3.8125 0.7225 3.8125 1.0625 C3.07 1.206875 2.3275 1.35125 1.5625 1.5 C-1.11561274 1.99881867 -1.11561274 1.99881867 -3.375 2.75 C-3.973125 2.853125 -4.57125 2.95625 -5.1875 3.0625 C-5.8475 2.4025 -6.5075 1.7425 -7.1875 1.0625 C-4.43671116 0.14557039 -2.82801087 -0.04636083 0 0 Z " fill="#C9454B" transform="translate(231.1875,152.9375)"/>
</svg>
